<?xml version="1.0" encoding="UTF-8" standalone="no"?>
<!DOCTYPE svg PUBLIC "-//W3C//DTD SVG 1.1//EN"
 "http://www.w3.org/Graphics/SVG/1.1/DTD/svg11.dtd">
<!-- Generated by graphviz version 2.43.0 (0)
 -->
<!-- Title: BitBully::Board::lsb Pages: 1 -->
<!--zoomable 280 -->

<svg id="main" version="1.1" xmlns="http://www.w3.org/2000/svg" xmlns:xlink="http://www.w3.org/1999/xlink" xml:space="preserve" onload="init(evt)">

<style type="text/css"><![CDATA[
.node, .edge {opacity: 0.7;}
.node.selected, .edge.selected {opacity: 1;}
.edge:hover path { stroke: red; }
.edge:hover polygon { stroke: red; fill: red; }
]]></style>

<defs>
  <circle id="rim" cx="0" cy="0" r="7"/>
  <circle id="rim2" cx="0" cy="0" r="3.5"/>
  <g id="zoomPlus">
    <use xlink:href="#rim" fill="#404040"><set attributeName="fill" to="#808080" begin="zoomplus.mouseover" end="zoomplus.mouseout"/></use>
    <path d="M-4,0h8M0,-4v8" fill="none" stroke="white" stroke-width="1.5" pointer-events="none"/>
  </g>
  <g id="zoomMin">
    <use xlink:href="#rim" fill="#404040"><set attributeName="fill" to="#808080" begin="zoomminus.mouseover" end="zoomminus.mouseout"/></use>
    <path d="M-4,0h8" fill="none" stroke="white" stroke-width="1.5" pointer-events="none"/>
  </g>
  <g id="arrowUp" transform="translate(30 24)">
    <use xlink:href="#rim"/>
    <path pointer-events="none" fill="none" stroke="white" stroke-width="1.5" d="M0,-3.0v7 M-2.5,-0.5L0,-3.0L2.5,-0.5"/>
  </g>
  <g id="arrowRight" transform="rotate(90) translate(36 -43)">
    <use xlink:href="#rim"/>
    <path pointer-events="none" fill="none" stroke="white" stroke-width="1.5" d="M0,-3.0v7 M-2.5,-0.5L0,-3.0L2.5,-0.5"/>
  </g>
  <g id="arrowDown" transform="rotate(180) translate(-30 -48)">
    <use xlink:href="#rim"/>
    <path pointer-events="none" fill="none" stroke="white" stroke-width="1.5" d="M0,-3.0v7 M-2.5,-0.5L0,-3.0L2.5,-0.5"/>
  </g>
  <g id="arrowLeft" transform="rotate(270) translate(-36 17)">
    <use xlink:href="#rim"/>
    <path pointer-events="none" fill="none" stroke="white" stroke-width="1.5" d="M0,-3.0v7 M-2.5,-0.5L0,-3.0L2.5,-0.5"/>
  </g>
  <g id="resetDef">
    <use xlink:href="#rim2" fill="#404040"><set attributeName="fill" to="#808080" begin="reset.mouseover" end="reset.mouseout"/></use>
  </g>
</defs>
<script type="application/ecmascript">
var viewWidth = 1166;
var viewHeight = 280;
var sectionId = 'dynsection-24';
</script>
<script type="application/ecmascript" xlink:href="svg.min.js"/>
<svg id="graph" class="graph">
<g id="viewport">
<title>BitBully::Board::lsb</title>
<!-- Node1 -->
<g id="Node000001" class="node">
<title>Node1</title>
<g id="a_Node000001"><a xlink:title="Isolate the least significant set bit of a bitboard.">
<polygon fill="#999999" stroke="#666666" points="1158,-214.73 1049,-214.73 1049,-195.73 1158,-195.73 1158,-214.73"/>
<text text-anchor="middle" x="1103.5" y="-202.73" font-family="Helvetica,sans-Serif" font-size="10.00">BitBully::Board::lsb</text>
</a>
</g>
</g>
<!-- Node2 -->
<g id="Node000002" class="node">
<title>Node2</title>
<g id="a_Node000002"><a xlink:href="classBitBully_1_1Board.html#a1cb7eb6673dabac4feb0d25af9d6580a" target="_top" xlink:title="Identify candidate moves that introduce a new &quot;odd&quot; threat.">
<polygon fill="white" stroke="#666666" points="1007.5,-263.23 875.5,-263.23 875.5,-233.23 1007.5,-233.23 1007.5,-263.23"/>
<text text-anchor="start" x="883.5" y="-251.23" font-family="Helvetica,sans-Serif" font-size="10.00">BitBully::Board::findOdd</text>
<text text-anchor="middle" x="941.5" y="-240.23" font-family="Helvetica,sans-Serif" font-size="10.00">Threats</text>
</a>
</g>
</g>
<!-- Node1&#45;&gt;Node2 -->
<g id="edge1_Node000001_Node000002" class="edge">
<title>Node1&#45;&gt;Node2</title>
<g id="a_edge1_Node000001_Node000002"><a xlink:title=" ">
<path fill="none" stroke="#63b8ff" d="M1057.17,-217.41C1038.87,-222.33 1017.58,-228.05 998.34,-233.22"/>
<polygon fill="#63b8ff" stroke="#63b8ff" points="1058.24,-220.74 1066.99,-214.77 1056.43,-213.98 1058.24,-220.74"/>
</a>
</g>
</g>
<!-- Node3 -->
<g id="Node000003" class="node">
<title>Node3</title>
<g id="a_Node000003"><a xlink:href="classBitBully_1_1Board.html#aa1a6fa84e11fe0fc5a7abb64ee713cf6" target="_top" xlink:title="Identify candidate moves that yield a tactical advantage.">
<polygon fill="white" stroke="#666666" points="834,-224.73 685,-224.73 685,-205.73 834,-205.73 834,-224.73"/>
<text text-anchor="middle" x="759.5" y="-212.73" font-family="Helvetica,sans-Serif" font-size="10.00">BitBully::Board::findThreats</text>
</a>
</g>
</g>
<!-- Node1&#45;&gt;Node3 -->
<g id="edge2_Node000001_Node000003" class="edge">
<title>Node1&#45;&gt;Node3</title>
<g id="a_edge2_Node000001_Node000003"><a xlink:title=" ">
<path fill="none" stroke="#63b8ff" d="M1038.54,-207.1C980.47,-208.79 894.88,-211.3 834.01,-213.08"/>
<polygon fill="#63b8ff" stroke="#63b8ff" points="1038.79,-210.59 1048.69,-206.8 1038.59,-203.59 1038.79,-210.59"/>
</a>
</g>
</g>
<!-- Node11 -->
<g id="Node000011" class="node">
<title>Node11</title>
<g id="a_Node000011"><a xlink:href="classBitBully_1_1Board.html#a6ae4995235ad5092e1d7c38fcc990073" target="_top" xlink:title="Pick the best&#45;ranked move from a candidate set using a fixed priority order.">
<polygon fill="white" stroke="#666666" points="1013,-167.73 870,-167.73 870,-148.73 1013,-148.73 1013,-167.73"/>
<text text-anchor="middle" x="941.5" y="-155.73" font-family="Helvetica,sans-Serif" font-size="10.00">BitBully::Board::nextMove</text>
</a>
</g>
</g>
<!-- Node1&#45;&gt;Node11 -->
<g id="edge16_Node000001_Node000011" class="edge">
<title>Node1&#45;&gt;Node11</title>
<g id="a_edge16_Node000001_Node000011"><a xlink:title=" ">
<path fill="none" stroke="#63b8ff" d="M1060.29,-192.83C1033.63,-185 999.7,-175.03 975.1,-167.8"/>
<polygon fill="#63b8ff" stroke="#63b8ff" points="1059.54,-196.25 1070.12,-195.72 1061.51,-189.54 1059.54,-196.25"/>
</a>
</g>
</g>
<!-- Node4 -->
<g id="Node000004" class="node">
<title>Node4</title>
<g id="a_Node000004"><a xlink:href="classBitBully_1_1BitBully.html#ab560bedc498b3e70e5eddfef4a32b533" target="_top" xlink:title="Negamax search with alpha&#45;beta pruning, transposition table and opening book consultation.">
<polygon fill="white" stroke="#666666" points="649,-173.23 551,-173.23 551,-143.23 649,-143.23 649,-173.23"/>
<text text-anchor="start" x="559" y="-161.23" font-family="Helvetica,sans-Serif" font-size="10.00">BitBully::BitBully</text>
<text text-anchor="middle" x="600" y="-150.23" font-family="Helvetica,sans-Serif" font-size="10.00">::negamax</text>
</a>
</g>
</g>
<!-- Node3&#45;&gt;Node4 -->
<g id="edge3_Node000003_Node000004" class="edge">
<title>Node3&#45;&gt;Node4</title>
<g id="a_edge3_Node000003_Node000004"><a xlink:title=" ">
<path fill="none" stroke="#63b8ff" d="M718.3,-202.57C707.44,-199.03 695.74,-195.08 685,-191.23 669.52,-185.66 652.6,-179.11 638.04,-173.32"/>
<polygon fill="#63b8ff" stroke="#63b8ff" points="717.38,-205.95 727.97,-205.7 719.53,-199.29 717.38,-205.95"/>
</a>
</g>
</g>
<!-- Node7 -->
<g id="Node000007" class="node">
<title>Node7</title>
<g id="a_Node000007"><a xlink:href="bitbully__core_8cpp.html#af5c1df2ff1f6f9a528f149e1c65f6ad2" target="_top" xlink:title="Define the bitbully_core extension module.">
<polygon fill="white" stroke="#666666" points="113,-148.73 0,-148.73 0,-129.73 113,-129.73 113,-148.73"/>
<text text-anchor="middle" x="56.5" y="-136.73" font-family="Helvetica,sans-Serif" font-size="10.00">PYBIND11_MODULE</text>
</a>
</g>
</g>
<!-- Node3&#45;&gt;Node7 -->
<g id="edge15_Node000003_Node000007" class="edge">
<title>Node3&#45;&gt;Node7</title>
<g id="a_edge15_Node000003_Node000007"><a xlink:title=" ">
<path fill="none" stroke="#63b8ff" d="M719.74,-227.76C664.33,-244.55 558.99,-272.23 467,-272.23 467,-272.23 467,-272.23 331,-272.23 218.01,-272.23 102.81,-179.29 68.05,-148.79"/>
<polygon fill="#63b8ff" stroke="#63b8ff" points="720.96,-231.05 729.49,-224.77 718.9,-224.36 720.96,-231.05"/>
</a>
</g>
</g>
<!-- Node4&#45;&gt;Node4 -->
<g id="edge11_Node000004_Node000004" class="edge">
<title>Node4&#45;&gt;Node4</title>
<g id="a_edge11_Node000004_Node000004"><a xlink:title=" ">
<path fill="none" stroke="#63b8ff" d="M623.46,-183.82C620.25,-188.2 612.43,-191.23 600,-191.23 579.06,-191.23 571.21,-182.63 576.45,-173.5"/>
<polygon fill="#63b8ff" stroke="#63b8ff" points="626.96,-183.53 623.55,-173.5 619.96,-183.47 626.96,-183.53"/>
</a>
</g>
</g>
<!-- Node5 -->
<g id="Node000005" class="node">
<title>Node5</title>
<g id="a_Node000005"><a xlink:href="classBitBully_1_1BitBully.html#a76cec6e90a0420017774f74dd489d251" target="_top" xlink:title="Solve a position using the MTD(f) driver.">
<polygon fill="white" stroke="#666666" points="515,-173.23 417,-173.23 417,-143.23 515,-143.23 515,-173.23"/>
<text text-anchor="start" x="425" y="-161.23" font-family="Helvetica,sans-Serif" font-size="10.00">BitBully::BitBully</text>
<text text-anchor="middle" x="466" y="-150.23" font-family="Helvetica,sans-Serif" font-size="10.00">::mtdf</text>
</a>
</g>
</g>
<!-- Node4&#45;&gt;Node5 -->
<g id="edge4_Node000004_Node000005" class="edge">
<title>Node4&#45;&gt;Node5</title>
<g id="a_edge4_Node000004_Node000005"><a xlink:title=" ">
<path fill="none" stroke="#63b8ff" d="M540.71,-158.23C532.19,-158.23 523.5,-158.23 515.21,-158.23"/>
<polygon fill="#63b8ff" stroke="#63b8ff" points="540.97,-161.73 550.97,-158.23 540.97,-154.73 540.97,-161.73"/>
</a>
</g>
</g>
<!-- Node4&#45;&gt;Node7 -->
<g id="edge14_Node000004_Node000007" class="edge">
<title>Node4&#45;&gt;Node7</title>
<g id="a_edge14_Node000004_Node000007"><a xlink:title=" ">
<path fill="none" stroke="#63b8ff" d="M552.16,-176.79C490.54,-198.88 378.82,-230.94 283,-215.23 204.93,-202.42 117.48,-166.25 78.36,-148.83"/>
<polygon fill="#63b8ff" stroke="#63b8ff" points="553.42,-180.05 561.61,-173.33 551.02,-173.48 553.42,-180.05"/>
</a>
</g>
</g>
<!-- Node10 -->
<g id="Node000010" class="node">
<title>Node10</title>
<g id="a_Node000010"><a xlink:href="classBitBully_1_1BitBully.html#a9c73ca66a2a7660b5125cd3c36535002" target="_top" xlink:title="Alternative driver based on a binary search of zero&#45;width windows.">
<polygon fill="white" stroke="#666666" points="247,-63.23 149,-63.23 149,-33.23 247,-33.23 247,-63.23"/>
<text text-anchor="start" x="157" y="-51.23" font-family="Helvetica,sans-Serif" font-size="10.00">BitBully::BitBully</text>
<text text-anchor="middle" x="198" y="-40.23" font-family="Helvetica,sans-Serif" font-size="10.00">::nullWindow</text>
</a>
</g>
</g>
<!-- Node4&#45;&gt;Node10 -->
<g id="edge12_Node000004_Node000010" class="edge">
<title>Node4&#45;&gt;Node10</title>
<g id="a_edge12_Node000004_Node000010"><a xlink:title=" ">
<path fill="none" stroke="#63b8ff" d="M543.71,-140.12C499.82,-126.02 436.77,-106.37 381,-91.23 335.88,-78.98 283.93,-66.9 247.12,-58.68"/>
<polygon fill="#63b8ff" stroke="#63b8ff" points="542.73,-143.49 553.32,-143.22 544.88,-136.82 542.73,-143.49"/>
</a>
</g>
</g>
<!-- Node6 -->
<g id="Node000006" class="node">
<title>Node6</title>
<g id="a_Node000006"><a xlink:href="src_2main_8cpp.html#aee608aedd5b0b58f2966c2ff15101925" target="_top" xlink:title="Entry point of the benchmark binary.">
<polygon fill="white" stroke="#666666" points="352.5,-205.73 311.5,-205.73 311.5,-186.73 352.5,-186.73 352.5,-205.73"/>
<text text-anchor="middle" x="332" y="-193.73" font-family="Helvetica,sans-Serif" font-size="10.00">main</text>
</a>
</g>
</g>
<!-- Node5&#45;&gt;Node6 -->
<g id="edge5_Node000005_Node000006" class="edge">
<title>Node5&#45;&gt;Node6</title>
<g id="a_edge5_Node000005_Node000006"><a xlink:title=" ">
<path fill="none" stroke="#63b8ff" d="M407.17,-174.87C387.59,-180.51 367.05,-186.42 352.56,-190.6"/>
<polygon fill="#63b8ff" stroke="#63b8ff" points="408.33,-178.18 416.97,-172.05 406.39,-171.46 408.33,-178.18"/>
</a>
</g>
</g>
<!-- Node5&#45;&gt;Node7 -->
<g id="edge6_Node000005_Node000007" class="edge">
<title>Node5&#45;&gt;Node7</title>
<g id="a_edge6_Node000005_Node000007"><a xlink:title=" ">
<path fill="none" stroke="#63b8ff" d="M406.47,-155.5C328.14,-151.84 190.17,-145.41 113.27,-141.83"/>
<polygon fill="#63b8ff" stroke="#63b8ff" points="406.5,-159 416.65,-155.97 406.83,-152.01 406.5,-159"/>
</a>
</g>
</g>
<!-- Node8 -->
<g id="Node000008" class="node">
<title>Node8</title>
<g id="a_Node000008"><a xlink:href="classBitBully_1_1BitBully.html#a8c405dc66e7e933d1a46b43ddd2492a8" target="_top" xlink:title="Evaluate the move that drops a stone in column.">
<polygon fill="white" stroke="#666666" points="381,-130.23 283,-130.23 283,-100.23 381,-100.23 381,-130.23"/>
<text text-anchor="start" x="291" y="-118.23" font-family="Helvetica,sans-Serif" font-size="10.00">BitBully::BitBully</text>
<text text-anchor="middle" x="332" y="-107.23" font-family="Helvetica,sans-Serif" font-size="10.00">::scoreMove</text>
</a>
</g>
</g>
<!-- Node5&#45;&gt;Node8 -->
<g id="edge7_Node000005_Node000008" class="edge">
<title>Node5&#45;&gt;Node8</title>
<g id="a_edge7_Node000005_Node000008"><a xlink:title=" ">
<path fill="none" stroke="#63b8ff" d="M409.07,-140.01C399.17,-136.78 388.96,-133.46 379.36,-130.33"/>
<polygon fill="#63b8ff" stroke="#63b8ff" points="408.24,-143.42 418.83,-143.19 410.41,-136.76 408.24,-143.42"/>
</a>
</g>
</g>
<!-- Node8&#45;&gt;Node7 -->
<g id="edge8_Node000008_Node000007" class="edge">
<title>Node8&#45;&gt;Node7</title>
<g id="a_edge8_Node000008_Node000007"><a xlink:title=" ">
<path fill="none" stroke="#63b8ff" d="M272.68,-120.34C225.58,-124.48 159.71,-130.26 113.3,-134.33"/>
<polygon fill="#63b8ff" stroke="#63b8ff" points="273.08,-123.82 282.73,-119.46 272.47,-116.85 273.08,-123.82"/>
</a>
</g>
</g>
<!-- Node9 -->
<g id="Node000009" class="node">
<title>Node9</title>
<g id="a_Node000009"><a xlink:href="classBitBully_1_1BitBully.html#ab4c3408f62623c65181ff00f1d5d6044" target="_top" xlink:title="Evaluate every column move from b.">
<polygon fill="white" stroke="#666666" points="247,-111.23 149,-111.23 149,-81.23 247,-81.23 247,-111.23"/>
<text text-anchor="start" x="157" y="-99.23" font-family="Helvetica,sans-Serif" font-size="10.00">BitBully::BitBully</text>
<text text-anchor="middle" x="198" y="-88.23" font-family="Helvetica,sans-Serif" font-size="10.00">::scoreMoves</text>
</a>
</g>
</g>
<!-- Node8&#45;&gt;Node9 -->
<g id="edge9_Node000008_Node000009" class="edge">
<title>Node8&#45;&gt;Node9</title>
<g id="a_edge9_Node000008_Node000009"><a xlink:title=" ">
<path fill="none" stroke="#63b8ff" d="M272.99,-106.88C264.38,-105.64 255.59,-104.37 247.21,-103.17"/>
<polygon fill="#63b8ff" stroke="#63b8ff" points="272.57,-110.35 282.97,-108.31 273.57,-103.42 272.57,-110.35"/>
</a>
</g>
</g>
<!-- Node9&#45;&gt;Node7 -->
<g id="edge10_Node000009_Node000007" class="edge">
<title>Node9&#45;&gt;Node7</title>
<g id="a_edge10_Node000009_Node000007"><a xlink:title=" ">
<path fill="none" stroke="#63b8ff" d="M138.96,-114.12C121.67,-119.45 103.39,-125.08 88.53,-129.66"/>
<polygon fill="#63b8ff" stroke="#63b8ff" points="140.47,-117.31 148.99,-111.02 138.4,-110.63 140.47,-117.31"/>
</a>
</g>
</g>
<!-- Node10&#45;&gt;Node7 -->
<g id="edge13_Node000010_Node000007" class="edge">
<title>Node10&#45;&gt;Node7</title>
<g id="a_edge13_Node000010_Node000007"><a xlink:title=" ">
<path fill="none" stroke="#63b8ff" d="M156.15,-68.05C153.71,-69.42 151.31,-70.82 149,-72.23 118.91,-90.58 86.17,-116.03 69.19,-129.67"/>
<polygon fill="#63b8ff" stroke="#63b8ff" points="157.95,-71.06 165.09,-63.24 154.63,-64.9 157.95,-71.06"/>
</a>
</g>
</g>
<!-- Node11&#45;&gt;Node4 -->
<g id="edge17_Node000011_Node000004" class="edge">
<title>Node11&#45;&gt;Node4</title>
<g id="a_edge17_Node000011_Node000004"><a xlink:title=" ">
<path fill="none" stroke="#63b8ff" d="M859.45,-158.23C793.94,-158.23 703.92,-158.23 649.24,-158.23"/>
<polygon fill="#63b8ff" stroke="#63b8ff" points="859.74,-161.73 869.74,-158.23 859.74,-154.73 859.74,-161.73"/>
</a>
</g>
</g>
<!-- Node12 -->
<g id="Node000012" class="node">
<title>Node12</title>
<g id="a_Node000012"><a xlink:href="classBitBully_1_1BitBully.html#aeeb900218ac6cd155adc27ff4283c904" target="_top" xlink:title="Cheap evaluation: play out the game using safe heuristic moves.">
<polygon fill="white" stroke="#666666" points="808.5,-111.23 710.5,-111.23 710.5,-81.23 808.5,-81.23 808.5,-111.23"/>
<text text-anchor="start" x="718.5" y="-99.23" font-family="Helvetica,sans-Serif" font-size="10.00">BitBully::BitBully</text>
<text text-anchor="middle" x="759.5" y="-88.23" font-family="Helvetica,sans-Serif" font-size="10.00">::rollout</text>
</a>
</g>
</g>
<!-- Node11&#45;&gt;Node12 -->
<g id="edge18_Node000011_Node000012" class="edge">
<title>Node11&#45;&gt;Node12</title>
<g id="a_edge18_Node000011_Node000012"><a xlink:title=" ">
<path fill="none" stroke="#63b8ff" d="M904.69,-145.18C884.07,-137.73 857.63,-128.3 834,-120.23 825.36,-117.28 816.13,-114.2 807.22,-111.27"/>
<polygon fill="#63b8ff" stroke="#63b8ff" points="903.71,-148.55 914.31,-148.66 906.1,-141.96 903.71,-148.55"/>
</a>
</g>
</g>
<!-- Node13 -->
<g id="Node000013" class="node">
<title>Node13</title>
<g id="a_Node000013"><a xlink:href="classBitBully_1_1Board.html#a0d3c307cd8aa9aa2654254b6e801db6b" target="_top" xlink:title="Sort candidate moves into a MoveList using a threat&#45;based heuristic.">
<polygon fill="white" stroke="#666666" points="832.5,-148.73 686.5,-148.73 686.5,-129.73 832.5,-129.73 832.5,-148.73"/>
<text text-anchor="middle" x="759.5" y="-136.73" font-family="Helvetica,sans-Serif" font-size="10.00">BitBully::Board::sortMoves</text>
</a>
</g>
</g>
<!-- Node11&#45;&gt;Node13 -->
<g id="edge21_Node000011_Node000013" class="edge">
<title>Node11&#45;&gt;Node13</title>
<g id="a_edge21_Node000011_Node000013"><a xlink:title=" ">
<path fill="none" stroke="#63b8ff" d="M859.76,-149.7C850.74,-148.75 841.6,-147.79 832.7,-146.85"/>
<polygon fill="#63b8ff" stroke="#63b8ff" points="859.56,-153.2 869.88,-150.77 860.3,-146.24 859.56,-153.2"/>
</a>
</g>
</g>
<!-- Node12&#45;&gt;Node4 -->
<g id="edge19_Node000012_Node000004" class="edge">
<title>Node12&#45;&gt;Node4</title>
<g id="a_edge19_Node000012_Node000004"><a xlink:title=" ">
<path fill="none" stroke="#63b8ff" d="M700.76,-114.42C695.41,-116.3 690.08,-118.25 685,-120.23 667.24,-127.12 647.84,-135.81 632.17,-143.15"/>
<polygon fill="#63b8ff" stroke="#63b8ff" points="702.08,-117.66 710.39,-111.1 699.8,-111.04 702.08,-117.66"/>
</a>
</g>
</g>
<!-- Node12&#45;&gt;Node7 -->
<g id="edge20_Node000012_Node000007" class="edge">
<title>Node12&#45;&gt;Node7</title>
<g id="a_edge20_Node000012_Node000007"><a xlink:title=" ">
<path fill="none" stroke="#63b8ff" d="M721.22,-76.59C666.88,-49.84 562.03,-5.23 467,-5.23 467,-5.23 467,-5.23 331,-5.23 249.67,-5.23 220.32,14.86 149,-24.23 103.58,-49.12 72.66,-106.85 61.8,-129.68"/>
<polygon fill="#63b8ff" stroke="#63b8ff" points="719.94,-79.86 730.45,-81.2 723.07,-73.6 719.94,-79.86"/>
</a>
</g>
</g>
<!-- Node13&#45;&gt;Node4 -->
<g id="edge22_Node000013_Node000004" class="edge">
<title>Node13&#45;&gt;Node4</title>
<g id="a_edge22_Node000013_Node000004"><a xlink:title=" ">
<path fill="none" stroke="#63b8ff" d="M676.26,-149.15C667.09,-150.25 657.99,-151.35 649.45,-152.38"/>
<polygon fill="#63b8ff" stroke="#63b8ff" points="676.69,-152.62 686.2,-147.95 675.86,-145.67 676.69,-152.62"/>
</a>
</g>
</g>
</g>
</svg>

<g id="navigator" transform="translate(0 0)" fill="#404254">
  <rect fill="#f2f5e9" fill-opacity="0.5" stroke="#606060" stroke-width=".5" x="0" y="0" width="60" height="60"/>
  <use id="zoomplus" xlink:href="#zoomPlus" x="17" y="9" onmousedown="handleZoom(evt,'in')"/>
  <use id="zoomminus" xlink:href="#zoomMin" x="42" y="9" onmousedown="handleZoom(evt,'out')"/>
  <use id="reset" xlink:href="#resetDef" x="30" y="36" onmousedown="handleReset()"/>
   <use id="arrowup" xlink:href="#arrowUp" x="0" y="0" onmousedown="handlePan(0,-1)"/>
  <use id="arrowright" xlink:href="#arrowRight" x="0" y="0" onmousedown="handlePan(1,0)"/>
  <use id="arrowdown" xlink:href="#arrowDown" x="0" y="0" onmousedown="handlePan(0,1)"/>
  <use id="arrowleft" xlink:href="#arrowLeft" x="0" y="0" onmousedown="handlePan(-1,0)"/>
</g>
<svg viewBox="0 0 15 15" width="100%" height="30px" preserveAspectRatio="xMaxYMin meet">
 <g id="arrow_out" transform="scale(0.3 0.3)">
  <a xlink:href="classBitBully_1_1Board_ab27e5321cdbbf9ffec1abe4897ce6ad1_icgraph_org.svg" target="_base">
   <rect id="button" ry="5" rx="5" y="6" x="6" height="38" width="38"
        fill="#f2f5e9" fill-opacity="0.5" stroke="#606060" stroke-width="1.0"/>
   <path id="arrow"
     d="M 11.500037,31.436501 C 11.940474,20.09759 22.043105,11.32322 32.158766,21.979434 L 37.068811,17.246167 C 37.068811,17.246167 37.088388,32 37.088388,32 L 22.160133,31.978069 C 22.160133,31.978069 26.997745,27.140456 26.997745,27.140456 C 18.528582,18.264221 13.291696,25.230495 11.500037,31.436501 z"
     style="fill:#404040;"/>
  </a>
 </g>
</svg>

<style type='text/css'>
<![CDATA[
[data-mouse-over-selected='false'] { opacity: 0.7; }
[data-mouse-over-selected='true']  { opacity: 1.0; }
]]>
</style>
<script type="application/ecmascript"><![CDATA[
document.addEventListener('DOMContentLoaded', (event) => {
  highlightEdges();
  highlightAdjacentNodes();
});
]]></script>
</svg>
