<?xml version="1.0" encoding="UTF-8" standalone="no"?>
<!DOCTYPE svg PUBLIC "-//W3C//DTD SVG 1.1//EN"
 "http://www.w3.org/Graphics/SVG/1.1/DTD/svg11.dtd">
<!-- Generated by graphviz version 2.43.0 (0)
 -->
<!-- Title: BitBully::OpeningBook::OpeningBook Pages: 1 -->
<svg width="616pt" height="38pt"
 viewBox="0.00 0.00 616.00 38.00" xmlns="http://www.w3.org/2000/svg" xmlns:xlink="http://www.w3.org/1999/xlink">
<g id="graph0" class="graph" transform="scale(1 1) rotate(0) translate(4 34)">
<title>BitBully::OpeningBook::OpeningBook</title>
<!-- Node1 -->
<g id="Node000001" class="node">
<title>Node1</title>
<g id="a_Node000001"><a xlink:title="Load an opening book and auto&#45;detect its flavour.">
<polygon fill="#999999" stroke="#666666" points="125,-30 0,-30 0,0 125,0 125,-30"/>
<text text-anchor="start" x="8" y="-18" font-family="Helvetica,sans-Serif" font-size="10.00">BitBully::OpeningBook</text>
<text text-anchor="middle" x="62.5" y="-7" font-family="Helvetica,sans-Serif" font-size="10.00">::OpeningBook</text>
</a>
</g>
</g>
<!-- Node2 -->
<g id="Node000002" class="node">
<title>Node2</title>
<g id="a_Node000002"><a xlink:href="classBitBully_1_1OpeningBook.html#ad5c80588e45a33ab50690392a764a64f" target="_top" xlink:title="Re&#45;initialise the book in place.">
<polygon fill="white" stroke="#666666" points="286,-30 161,-30 161,0 286,0 286,-30"/>
<text text-anchor="start" x="169" y="-18" font-family="Helvetica,sans-Serif" font-size="10.00">BitBully::OpeningBook</text>
<text text-anchor="middle" x="223.5" y="-7" font-family="Helvetica,sans-Serif" font-size="10.00">::init</text>
</a>
</g>
</g>
<!-- Node1&#45;&gt;Node2 -->
<g id="edge1_Node000001_Node000002" class="edge">
<title>Node1&#45;&gt;Node2</title>
<g id="a_edge1_Node000001_Node000002"><a xlink:title=" ">
<path fill="none" stroke="#63b8ff" d="M125.43,-15C133.67,-15 142.18,-15 150.58,-15"/>
<polygon fill="#63b8ff" stroke="#63b8ff" points="150.74,-18.5 160.74,-15 150.74,-11.5 150.74,-18.5"/>
</a>
</g>
</g>
<!-- Node3 -->
<g id="Node000003" class="node">
<title>Node3</title>
<g id="a_Node000003"><a xlink:href="classBitBully_1_1OpeningBook.html#a4c4d2b0a00e03a84c9a54fae6b9234dc" target="_top" xlink:title="Slurp an entire opening book file into memory.">
<polygon fill="white" stroke="#666666" points="447,-30 322,-30 322,0 447,0 447,-30"/>
<text text-anchor="start" x="330" y="-18" font-family="Helvetica,sans-Serif" font-size="10.00">BitBully::OpeningBook</text>
<text text-anchor="middle" x="384.5" y="-7" font-family="Helvetica,sans-Serif" font-size="10.00">::readBook</text>
</a>
</g>
</g>
<!-- Node2&#45;&gt;Node3 -->
<g id="edge2_Node000002_Node000003" class="edge">
<title>Node2&#45;&gt;Node3</title>
<g id="a_edge2_Node000002_Node000003"><a xlink:title=" ">
<path fill="none" stroke="#63b8ff" d="M286.43,-15C294.67,-15 303.18,-15 311.58,-15"/>
<polygon fill="#63b8ff" stroke="#63b8ff" points="311.74,-18.5 321.74,-15 311.74,-11.5 311.74,-18.5"/>
</a>
</g>
</g>
<!-- Node4 -->
<g id="Node000004" class="node">
<title>Node4</title>
<g id="a_Node000004"><a xlink:href="classBitBully_1_1OpeningBook.html#a37db8640da53e0f0bfbb55a116a84931" target="_top" xlink:title="Read a single entry from a binary book stream.">
<polygon fill="white" stroke="#666666" points="608,-30 483,-30 483,0 608,0 608,-30"/>
<text text-anchor="start" x="491" y="-18" font-family="Helvetica,sans-Serif" font-size="10.00">BitBully::OpeningBook</text>
<text text-anchor="middle" x="545.5" y="-7" font-family="Helvetica,sans-Serif" font-size="10.00">::readline</text>
</a>
</g>
</g>
<!-- Node3&#45;&gt;Node4 -->
<g id="edge3_Node000003_Node000004" class="edge">
<title>Node3&#45;&gt;Node4</title>
<g id="a_edge3_Node000003_Node000004"><a xlink:title=" ">
<path fill="none" stroke="#63b8ff" d="M447.43,-15C455.67,-15 464.18,-15 472.58,-15"/>
<polygon fill="#63b8ff" stroke="#63b8ff" points="472.74,-18.5 482.74,-15 472.74,-11.5 472.74,-18.5"/>
</a>
</g>
</g>
</g>
</svg>
