<?xml version="1.0" encoding="UTF-8" standalone="no"?>
<!DOCTYPE svg PUBLIC "-//W3C//DTD SVG 1.1//EN"
 "http://www.w3.org/Graphics/SVG/1.1/DTD/svg11.dtd">
<!-- Generated by graphviz version 2.43.0 (0)
 -->
<!-- Title: BitBully::BitBully::getNodeCounter Pages: 1 -->
<svg width="259pt" height="64pt"
 viewBox="0.00 0.00 259.00 64.00" xmlns="http://www.w3.org/2000/svg" xmlns:xlink="http://www.w3.org/1999/xlink">
<g id="graph0" class="graph" transform="scale(1 1) rotate(0) translate(4 60)">
<title>BitBully::BitBully::getNodeCounter</title>
<!-- Node1 -->
<g id="Node000001" class="node">
<title>Node1</title>
<g id="a_Node000001"><a xlink:title="Number of nodes visited since resetNodeCounter().">
<polygon fill="#999999" stroke="#666666" points="251,-42.5 149,-42.5 149,-12.5 251,-12.5 251,-42.5"/>
<text text-anchor="start" x="157" y="-30.5" font-family="Helvetica,sans-Serif" font-size="10.00">BitBully::BitBully</text>
<text text-anchor="middle" x="200" y="-19.5" font-family="Helvetica,sans-Serif" font-size="10.00">::getNodeCounter</text>
</a>
</g>
</g>
<!-- Node2 -->
<g id="Node000002" class="node">
<title>Node2</title>
<g id="a_Node000002"><a xlink:href="src_2main_8cpp.html#aee608aedd5b0b58f2966c2ff15101925" target="_top" xlink:title="Entry point of the benchmark binary.">
<polygon fill="white" stroke="#666666" points="77,-56 36,-56 36,-37 77,-37 77,-56"/>
<text text-anchor="middle" x="56.5" y="-44" font-family="Helvetica,sans-Serif" font-size="10.00">main</text>
</a>
</g>
</g>
<!-- Node1&#45;&gt;Node2 -->
<g id="edge1_Node000001_Node000002" class="edge">
<title>Node1&#45;&gt;Node2</title>
<g id="a_edge1_Node000001_Node000002"><a xlink:title=" ">
<path fill="none" stroke="#63b8ff" d="M138.68,-35.6C116.55,-38.57 93.03,-41.73 77.04,-43.88"/>
<polygon fill="#63b8ff" stroke="#63b8ff" points="139.27,-39.05 148.71,-34.25 138.34,-32.11 139.27,-39.05"/>
</a>
</g>
</g>
<!-- Node3 -->
<g id="Node000003" class="node">
<title>Node3</title>
<g id="a_Node000003"><a xlink:href="bitbully__core_8cpp.html#af5c1df2ff1f6f9a528f149e1c65f6ad2" target="_top" xlink:title="Define the bitbully_core extension module.">
<polygon fill="white" stroke="#666666" points="113,-19 0,-19 0,0 113,0 113,-19"/>
<text text-anchor="middle" x="56.5" y="-7" font-family="Helvetica,sans-Serif" font-size="10.00">PYBIND11_MODULE</text>
</a>
</g>
</g>
<!-- Node1&#45;&gt;Node3 -->
<g id="edge2_Node000001_Node000003" class="edge">
<title>Node1&#45;&gt;Node3</title>
<g id="a_edge2_Node000001_Node000003"><a xlink:title=" ">
<path fill="none" stroke="#63b8ff" d="M138.63,-19.82C130.26,-18.76 121.69,-17.67 113.4,-16.61"/>
<polygon fill="#63b8ff" stroke="#63b8ff" points="138.35,-23.31 148.71,-21.1 139.24,-16.37 138.35,-23.31"/>
</a>
</g>
</g>
</g>
</svg>
