<?xml version="1.0" encoding="UTF-8" standalone="no"?>
<!DOCTYPE svg PUBLIC "-//W3C//DTD SVG 1.1//EN"
 "http://www.w3.org/Graphics/SVG/1.1/DTD/svg11.dtd">
<!-- Generated by graphviz version 2.43.0 (0)
 -->
<!-- Title: BitBully::Board::isLegalMove Pages: 1 -->
<svg width="833pt" height="289pt"
 viewBox="0.00 0.00 833.00 288.59" xmlns="http://www.w3.org/2000/svg" xmlns:xlink="http://www.w3.org/1999/xlink">
<g id="graph0" class="graph" transform="scale(1 1) rotate(0) translate(4 284.59)">
<title>BitBully::Board::isLegalMove</title>
<!-- Node1 -->
<g id="Node000001" class="node">
<title>Node1</title>
<g id="a_Node000001"><a xlink:title="Check whether dropping a stone in column is legal.">
<polygon fill="#999999" stroke="#666666" points="825,-145.59 669,-145.59 669,-126.59 825,-126.59 825,-145.59"/>
<text text-anchor="middle" x="747" y="-133.59" font-family="Helvetica,sans-Serif" font-size="10.00">BitBully::Board::isLegalMove</text>
</a>
</g>
</g>
<!-- Node2 -->
<g id="Node000002" class="node">
<title>Node2</title>
<g id="a_Node000002"><a xlink:href="classBitBully_1_1Board.html#a3e2fea1658610424d88db178feacf4cb" target="_top" xlink:title="Variant of canWin() restricted to a particular column.">
<polygon fill="white" stroke="#666666" points="633,-182.59 502,-182.59 502,-163.59 633,-163.59 633,-182.59"/>
<text text-anchor="middle" x="567.5" y="-170.59" font-family="Helvetica,sans-Serif" font-size="10.00">BitBully::Board::canWin</text>
</a>
</g>
</g>
<!-- Node1&#45;&gt;Node2 -->
<g id="edge1_Node000001_Node000002" class="edge">
<title>Node1&#45;&gt;Node2</title>
<g id="a_edge1_Node000001_Node000002"><a xlink:title=" ">
<path fill="none" stroke="#63b8ff" d="M690.43,-147.68C665.97,-152.77 637.59,-158.69 614.36,-163.53"/>
<polygon fill="#63b8ff" stroke="#63b8ff" points="691.21,-151.09 700.29,-145.62 689.79,-144.23 691.21,-151.09"/>
</a>
</g>
</g>
<!-- Node3 -->
<g id="Node000003" class="node">
<title>Node3</title>
<g id="a_Node000003"><a xlink:href="classBitBully_1_1Board.html#a4e2be92545e14189714535aa5c5a6745" target="_top" xlink:title="Drop a stone of the player to move into column.">
<polygon fill="white" stroke="#666666" points="625.5,-145.59 509.5,-145.59 509.5,-126.59 625.5,-126.59 625.5,-145.59"/>
<text text-anchor="middle" x="567.5" y="-133.59" font-family="Helvetica,sans-Serif" font-size="10.00">BitBully::Board::play</text>
</a>
</g>
</g>
<!-- Node1&#45;&gt;Node3 -->
<g id="edge2_Node000001_Node000003" class="edge">
<title>Node1&#45;&gt;Node3</title>
<g id="a_edge2_Node000001_Node000003"><a xlink:title=" ">
<path fill="none" stroke="#63b8ff" d="M658.67,-136.09C647.49,-136.09 636.27,-136.09 625.73,-136.09"/>
<polygon fill="#63b8ff" stroke="#63b8ff" points="658.92,-139.59 668.92,-136.09 658.92,-132.59 658.92,-139.59"/>
</a>
</g>
</g>
<!-- Node7 -->
<g id="Node000007" class="node">
<title>Node7</title>
<g id="a_Node000007"><a xlink:href="bitbully__core_8cpp.html#af5c1df2ff1f6f9a528f149e1c65f6ad2" target="_top" xlink:title="Define the bitbully_core extension module.">
<polygon fill="white" stroke="#666666" points="113,-129.59 0,-129.59 0,-110.59 113,-110.59 113,-129.59"/>
<text text-anchor="middle" x="56.5" y="-117.59" font-family="Helvetica,sans-Serif" font-size="10.00">PYBIND11_MODULE</text>
</a>
</g>
</g>
<!-- Node1&#45;&gt;Node7 -->
<g id="edge14_Node000001_Node000007" class="edge">
<title>Node1&#45;&gt;Node7</title>
<g id="a_edge14_Node000001_Node000007"><a xlink:title=" ">
<path fill="none" stroke="#63b8ff" d="M721.39,-121.45C673.97,-94.19 565.81,-36.58 466,-16.09 327.05,12.43 278.64,4.48 149,-53.09 116.07,-67.72 83.46,-95.67 67.54,-110.42"/>
<polygon fill="#63b8ff" stroke="#63b8ff" points="719.63,-124.48 730.04,-126.48 723.15,-118.43 719.63,-124.48"/>
</a>
</g>
</g>
<!-- Node4 -->
<g id="Node000004" class="node">
<title>Node4</title>
<g id="a_Node000004"><a xlink:href="classBitBully_1_1Board.html#a31ef16bb12244f6b16b6329813a57dbf" target="_top" xlink:title="Apply a sequence of moves encoded as digit characters.">
<polygon fill="white" stroke="#666666" points="455,-280.59 339,-280.59 339,-261.59 455,-261.59 455,-280.59"/>
<text text-anchor="middle" x="397" y="-268.59" font-family="Helvetica,sans-Serif" font-size="10.00">BitBully::Board::play</text>
</a>
</g>
</g>
<!-- Node3&#45;&gt;Node4 -->
<g id="edge3_Node000003_Node000004" class="edge">
<title>Node3&#45;&gt;Node4</title>
<g id="a_edge3_Node000003_Node000004"><a xlink:title=" ">
<path fill="none" stroke="#63b8ff" d="M507.44,-150.71C505.52,-152.05 503.7,-153.5 502,-155.09 468.13,-186.81 500.3,-221.85 466,-253.09 462.3,-256.46 458.04,-259.22 453.49,-261.46"/>
<polygon fill="#63b8ff" stroke="#63b8ff" points="509.43,-153.6 516.37,-145.6 505.96,-147.53 509.43,-153.6"/>
</a>
</g>
</g>
<!-- Node5 -->
<g id="Node000005" class="node">
<title>Node5</title>
<g id="a_Node000005"><a xlink:href="classBitBully_1_1Board.html#aa96ec2fe5bd7d067759e115861c8504a" target="_top" xlink:title="Apply a sequence of column&#45;index moves.">
<polygon fill="white" stroke="#666666" points="455,-243.59 339,-243.59 339,-224.59 455,-224.59 455,-243.59"/>
<text text-anchor="middle" x="397" y="-231.59" font-family="Helvetica,sans-Serif" font-size="10.00">BitBully::Board::play</text>
</a>
</g>
</g>
<!-- Node3&#45;&gt;Node5 -->
<g id="edge4_Node000003_Node000005" class="edge">
<title>Node3&#45;&gt;Node5</title>
<g id="a_edge4_Node000003_Node000005"><a xlink:title=" ">
<path fill="none" stroke="#63b8ff" d="M510.39,-149.82C507.45,-151.39 504.62,-153.14 502,-155.09 478.55,-172.51 488.99,-192.06 466,-210.09 458.02,-216.35 448.28,-221.05 438.7,-224.55"/>
<polygon fill="#63b8ff" stroke="#63b8ff" points="511.89,-152.98 519.52,-145.62 508.97,-146.62 511.89,-152.98"/>
</a>
</g>
</g>
<!-- Node6 -->
<g id="Node000006" class="node">
<title>Node6</title>
<g id="a_Node000006"><a xlink:href="classBitBully_1_1Board.html#aa97d678ff348e390ff66a66a6bd7f034" target="_top" xlink:title="Apply a move given by column index on a copy of this board.">
<polygon fill="white" stroke="#666666" points="292,-216.09 149,-216.09 149,-186.09 292,-186.09 292,-216.09"/>
<text text-anchor="start" x="157" y="-204.09" font-family="Helvetica,sans-Serif" font-size="10.00">BitBully::Board::playMove</text>
<text text-anchor="middle" x="220.5" y="-193.09" font-family="Helvetica,sans-Serif" font-size="10.00">OnCopy</text>
</a>
</g>
</g>
<!-- Node3&#45;&gt;Node6 -->
<g id="edge5_Node000003_Node000006" class="edge">
<title>Node3&#45;&gt;Node6</title>
<g id="a_edge5_Node000003_Node000006"><a xlink:title=" ">
<path fill="none" stroke="#63b8ff" d="M520.57,-148.67C514.28,-150.67 507.94,-152.83 502,-155.09 485.46,-161.39 483.01,-167.21 466,-172.09 408.89,-188.49 341.72,-195.63 292.24,-198.73"/>
<polygon fill="#63b8ff" stroke="#63b8ff" points="521.81,-151.95 530.35,-145.67 519.76,-145.26 521.81,-151.95"/>
</a>
</g>
</g>
<!-- Node3&#45;&gt;Node7 -->
<g id="edge7_Node000003_Node000007" class="edge">
<title>Node3&#45;&gt;Node7</title>
<g id="a_edge7_Node000003_Node000007"><a xlink:title=" ">
<path fill="none" stroke="#63b8ff" d="M499.27,-138.38C488.16,-138.67 476.76,-138.93 466,-139.09 325.09,-141.19 289.42,-144.02 149,-132.09 137.35,-131.1 124.9,-129.7 113.06,-128.2"/>
<polygon fill="#63b8ff" stroke="#63b8ff" points="499.47,-141.87 509.37,-138.09 499.28,-134.87 499.47,-141.87"/>
</a>
</g>
</g>
<!-- Node8 -->
<g id="Node000008" class="node">
<title>Node8</title>
<g id="a_Node000008"><a xlink:href="classBitBully_1_1BitBully.html#a8c405dc66e7e933d1a46b43ddd2492a8" target="_top" xlink:title="Evaluate the move that drops a stone in column.">
<polygon fill="white" stroke="#666666" points="446,-130.09 348,-130.09 348,-100.09 446,-100.09 446,-130.09"/>
<text text-anchor="start" x="356" y="-118.09" font-family="Helvetica,sans-Serif" font-size="10.00">BitBully::BitBully</text>
<text text-anchor="middle" x="397" y="-107.09" font-family="Helvetica,sans-Serif" font-size="10.00">::scoreMove</text>
</a>
</g>
</g>
<!-- Node3&#45;&gt;Node8 -->
<g id="edge8_Node000003_Node000008" class="edge">
<title>Node3&#45;&gt;Node8</title>
<g id="a_edge8_Node000003_Node000008"><a xlink:title=" ">
<path fill="none" stroke="#63b8ff" d="M499.13,-127.7C481.35,-125.48 462.53,-123.13 446,-121.07"/>
<polygon fill="#63b8ff" stroke="#63b8ff" points="499.1,-131.22 509.45,-128.98 499.96,-124.27 499.1,-131.22"/>
</a>
</g>
</g>
<!-- Node10 -->
<g id="Node000010" class="node">
<title>Node10</title>
<g id="a_Node000010"><a xlink:href="classBitBully_1_1Board.html#af68094c778fb01a6956eec5b853671c2" target="_top" xlink:title="String&#45;based variant of setBoard(const std::vector&lt;int&gt;&amp;).">
<polygon fill="white" stroke="#666666" points="466,-81.59 328,-81.59 328,-62.59 466,-62.59 466,-81.59"/>
<text text-anchor="middle" x="397" y="-69.59" font-family="Helvetica,sans-Serif" font-size="10.00">BitBully::Board::setBoard</text>
</a>
</g>
</g>
<!-- Node3&#45;&gt;Node10 -->
<g id="edge12_Node000003_Node000010" class="edge">
<title>Node3&#45;&gt;Node10</title>
<g id="a_edge12_Node000003_Node000010"><a xlink:title=" ">
<path fill="none" stroke="#63b8ff" d="M538.1,-122.01C518.22,-112.5 490.88,-100.08 466,-91.09 456.43,-87.63 445.92,-84.42 436.08,-81.66"/>
<polygon fill="#63b8ff" stroke="#63b8ff" points="536.68,-125.22 547.21,-126.42 539.73,-118.92 536.68,-125.22"/>
</a>
</g>
</g>
<!-- Node11 -->
<g id="Node000011" class="node">
<title>Node11</title>
<g id="a_Node000011"><a xlink:href="classBitBully_1_1Board.html#a9a71192a965bd34a2046d202c2d4f80e" target="_top" xlink:title="Replay a move sequence onto a fresh board and copy the result.">
<polygon fill="white" stroke="#666666" points="466,-44.59 328,-44.59 328,-25.59 466,-25.59 466,-44.59"/>
<text text-anchor="middle" x="397" y="-32.59" font-family="Helvetica,sans-Serif" font-size="10.00">BitBully::Board::setBoard</text>
</a>
</g>
</g>
<!-- Node3&#45;&gt;Node11 -->
<g id="edge13_Node000003_Node000011" class="edge">
<title>Node3&#45;&gt;Node11</title>
<g id="a_edge13_Node000003_Node000011"><a xlink:title=" ">
<path fill="none" stroke="#63b8ff" d="M550.74,-119.27C532.19,-100.46 499.64,-70.37 466,-53.09 459.48,-49.74 452.28,-46.98 445.08,-44.7"/>
<polygon fill="#63b8ff" stroke="#63b8ff" points="548.32,-121.82 557.79,-126.58 553.36,-116.95 548.32,-121.82"/>
</a>
</g>
</g>
<!-- Node6&#45;&gt;Node7 -->
<g id="edge6_Node000006_Node000007" class="edge">
<title>Node6&#45;&gt;Node7</title>
<g id="a_edge6_Node000006_Node000007"><a xlink:title=" ">
<path fill="none" stroke="#63b8ff" d="M171,-182.09C163.56,-178.9 156.03,-175.52 149,-172.09 121.57,-158.72 90.99,-140.67 73.04,-129.73"/>
<polygon fill="#63b8ff" stroke="#63b8ff" points="169.75,-185.36 180.32,-186.01 172.46,-178.91 169.75,-185.36"/>
</a>
</g>
</g>
<!-- Node8&#45;&gt;Node7 -->
<g id="edge9_Node000008_Node000007" class="edge">
<title>Node8&#45;&gt;Node7</title>
<g id="a_edge9_Node000008_Node000007"><a xlink:title=" ">
<path fill="none" stroke="#63b8ff" d="M337.69,-115.95C274.68,-116.88 174.99,-118.36 113.07,-119.27"/>
<polygon fill="#63b8ff" stroke="#63b8ff" points="337.91,-119.45 347.86,-115.8 337.81,-112.45 337.91,-119.45"/>
</a>
</g>
</g>
<!-- Node9 -->
<g id="Node000009" class="node">
<title>Node9</title>
<g id="a_Node000009"><a xlink:href="classBitBully_1_1BitBully.html#ab4c3408f62623c65181ff00f1d5d6044" target="_top" xlink:title="Evaluate every column move from b.">
<polygon fill="white" stroke="#666666" points="269.5,-92.09 171.5,-92.09 171.5,-62.09 269.5,-62.09 269.5,-92.09"/>
<text text-anchor="start" x="179.5" y="-80.09" font-family="Helvetica,sans-Serif" font-size="10.00">BitBully::BitBully</text>
<text text-anchor="middle" x="220.5" y="-69.09" font-family="Helvetica,sans-Serif" font-size="10.00">::scoreMoves</text>
</a>
</g>
</g>
<!-- Node8&#45;&gt;Node9 -->
<g id="edge10_Node000008_Node000009" class="edge">
<title>Node8&#45;&gt;Node9</title>
<g id="a_edge10_Node000008_Node000009"><a xlink:title=" ">
<path fill="none" stroke="#63b8ff" d="M337.92,-102.44C315.82,-97.63 290.89,-92.2 269.79,-87.61"/>
<polygon fill="#63b8ff" stroke="#63b8ff" points="337.34,-105.9 347.86,-104.61 338.83,-99.06 337.34,-105.9"/>
</a>
</g>
</g>
<!-- Node9&#45;&gt;Node7 -->
<g id="edge11_Node000009_Node000007" class="edge">
<title>Node9&#45;&gt;Node7</title>
<g id="a_edge11_Node000009_Node000007"><a xlink:title=" ">
<path fill="none" stroke="#63b8ff" d="M161.44,-92.5C138.72,-98.53 113.36,-105.26 93.39,-110.57"/>
<polygon fill="#63b8ff" stroke="#63b8ff" points="162.57,-95.82 171.33,-89.88 160.77,-89.06 162.57,-95.82"/>
</a>
</g>
</g>
</g>
</svg>
