<?xml version="1.0" encoding="UTF-8" standalone="no"?>
<!DOCTYPE svg PUBLIC "-//W3C//DTD SVG 1.1//EN"
 "http://www.w3.org/Graphics/SVG/1.1/DTD/svg11.dtd">
<!-- Generated by graphviz version 2.43.0 (0)
 -->
<!-- Title: BitBully::BitBully::scoreMove Pages: 1 -->
<svg width="1003pt" height="643pt"
 viewBox="0.00 0.00 1003.00 643.00" xmlns="http://www.w3.org/2000/svg" xmlns:xlink="http://www.w3.org/1999/xlink">
<g id="graph0" class="graph" transform="scale(1 1) rotate(0) translate(4 639)">
<title>BitBully::BitBully::scoreMove</title>
<!-- Node1 -->
<g id="Node000001" class="node">
<title>Node1</title>
<g id="a_Node000001"><a xlink:title="Evaluate the move that drops a stone in column.">
<polygon fill="#999999" stroke="#666666" points="98,-315.5 0,-315.5 0,-285.5 98,-285.5 98,-315.5"/>
<text text-anchor="start" x="8" y="-303.5" font-family="Helvetica,sans-Serif" font-size="10.00">BitBully::BitBully</text>
<text text-anchor="middle" x="49" y="-292.5" font-family="Helvetica,sans-Serif" font-size="10.00">::scoreMove</text>
</a>
</g>
</g>
<!-- Node2 -->
<g id="Node000002" class="node">
<title>Node2</title>
<g id="a_Node000002"><a xlink:href="classBitBully_1_1BitBully.html#a76cec6e90a0420017774f74dd489d251" target="_top" xlink:title="Solve a position using the MTD(f) driver.">
<polygon fill="white" stroke="#666666" points="241,-337.5 143,-337.5 143,-307.5 241,-307.5 241,-337.5"/>
<text text-anchor="start" x="151" y="-325.5" font-family="Helvetica,sans-Serif" font-size="10.00">BitBully::BitBully</text>
<text text-anchor="middle" x="192" y="-314.5" font-family="Helvetica,sans-Serif" font-size="10.00">::mtdf</text>
</a>
</g>
</g>
<!-- Node1&#45;&gt;Node2 -->
<g id="edge1_Node000001_Node000002" class="edge">
<title>Node1&#45;&gt;Node2</title>
<g id="a_edge1_Node000001_Node000002"><a xlink:title=" ">
<path fill="none" stroke="#63b8ff" d="M98.13,-308.01C109.24,-309.74 121.17,-311.6 132.66,-313.4"/>
<polygon fill="#63b8ff" stroke="#63b8ff" points="132.19,-316.87 142.61,-314.95 133.27,-309.95 132.19,-316.87"/>
</a>
</g>
</g>
<!-- Node23 -->
<g id="Node000023" class="node">
<title>Node23</title>
<g id="a_Node000023"><a xlink:href="classBitBully_1_1Board.html#a4e2be92545e14189714535aa5c5a6745" target="_top" xlink:title="Drop a stone of the player to move into column.">
<polygon fill="white" stroke="#666666" points="250,-289 134,-289 134,-270 250,-270 250,-289"/>
<text text-anchor="middle" x="192" y="-277" font-family="Helvetica,sans-Serif" font-size="10.00">BitBully::Board::play</text>
</a>
</g>
</g>
<!-- Node1&#45;&gt;Node23 -->
<g id="edge28_Node000001_Node000023" class="edge">
<title>Node1&#45;&gt;Node23</title>
<g id="a_edge28_Node000001_Node000023"><a xlink:title=" ">
<path fill="none" stroke="#63b8ff" d="M98.13,-293.33C106.39,-292.1 115.1,-290.8 123.75,-289.52"/>
<polygon fill="#63b8ff" stroke="#63b8ff" points="124.47,-292.95 133.84,-288.01 123.43,-286.02 124.47,-292.95"/>
</a>
</g>
</g>
<!-- Node3 -->
<g id="Node000003" class="node">
<title>Node3</title>
<g id="a_Node000003"><a xlink:href="classBitBully_1_1BitBully.html#ab560bedc498b3e70e5eddfef4a32b533" target="_top" xlink:title="Negamax search with alpha&#45;beta pruning, transposition table and opening book consultation.">
<polygon fill="white" stroke="#666666" points="413,-337.5 315,-337.5 315,-307.5 413,-307.5 413,-337.5"/>
<text text-anchor="start" x="323" y="-325.5" font-family="Helvetica,sans-Serif" font-size="10.00">BitBully::BitBully</text>
<text text-anchor="middle" x="364" y="-314.5" font-family="Helvetica,sans-Serif" font-size="10.00">::negamax</text>
</a>
</g>
</g>
<!-- Node2&#45;&gt;Node3 -->
<g id="edge2_Node000002_Node000003" class="edge">
<title>Node2&#45;&gt;Node3</title>
<g id="a_edge2_Node000002_Node000003"><a xlink:title=" ">
<path fill="none" stroke="#63b8ff" d="M241.26,-322.5C260.99,-322.5 284,-322.5 304.67,-322.5"/>
<polygon fill="#63b8ff" stroke="#63b8ff" points="304.91,-326 314.91,-322.5 304.91,-319 304.91,-326"/>
</a>
</g>
</g>
<!-- Node3&#45;&gt;Node3 -->
<g id="edge15_Node000003_Node000003" class="edge">
<title>Node3&#45;&gt;Node3</title>
<g id="a_edge15_Node000003_Node000003"><a xlink:title=" ">
<path fill="none" stroke="#63b8ff" d="M333.77,-337.78C327.05,-346.91 337.12,-355.5 364,-355.5 379.96,-355.5 389.99,-352.47 394.11,-348.1"/>
<polygon fill="#63b8ff" stroke="#63b8ff" points="397.61,-347.82 394.23,-337.78 390.61,-347.73 397.61,-347.82"/>
</a>
</g>
</g>
<!-- Node4 -->
<g id="Node000004" class="node">
<title>Node4</title>
<g id="a_Node000004"><a xlink:href="classBitBully_1_1Board.html#a31d1327bf9b59e6fff94d80443c7699e" target="_top" xlink:title="Does the player to move have an immediately winning move?">
<polygon fill="white" stroke="#666666" points="623,-635 492,-635 492,-616 623,-616 623,-635"/>
<text text-anchor="middle" x="557.5" y="-623" font-family="Helvetica,sans-Serif" font-size="10.00">BitBully::Board::canWin</text>
</a>
</g>
</g>
<!-- Node3&#45;&gt;Node4 -->
<g id="edge3_Node000003_Node000004" class="edge">
<title>Node3&#45;&gt;Node4</title>
<g id="a_edge3_Node000003_Node000004"><a xlink:title=" ">
<path fill="none" stroke="#63b8ff" d="M366.21,-337.67C370.87,-385.39 391.98,-533.66 478,-607.5 479.55,-608.83 481.18,-610.07 482.88,-611.22"/>
<polygon fill="#63b8ff" stroke="#63b8ff" points="481.4,-614.41 491.83,-616.28 484.85,-608.31 481.4,-614.41"/>
</a>
</g>
</g>
<!-- Node5 -->
<g id="Node000005" class="node">
<title>Node5</title>
<g id="a_Node000005"><a xlink:href="classBitBully_1_1Board.html#a2041fa032b47cab0dba8639a2de17090" target="_top" xlink:title="Number of stones currently placed on the board.">
<polygon fill="white" stroke="#666666" points="635,-598 480,-598 480,-579 635,-579 635,-598"/>
<text text-anchor="middle" x="557.5" y="-586" font-family="Helvetica,sans-Serif" font-size="10.00">BitBully::Board::countTokens</text>
</a>
</g>
</g>
<!-- Node3&#45;&gt;Node5 -->
<g id="edge4_Node000003_Node000005" class="edge">
<title>Node3&#45;&gt;Node5</title>
<g id="a_edge4_Node000003_Node000005"><a xlink:title=" ">
<path fill="none" stroke="#63b8ff" d="M367.18,-337.56C374.29,-381.04 401.01,-507.69 478,-570.5 479.54,-571.76 481.16,-572.93 482.83,-574.03"/>
<polygon fill="#63b8ff" stroke="#63b8ff" points="481.18,-577.12 491.63,-578.88 484.56,-570.99 481.18,-577.12"/>
</a>
</g>
</g>
<!-- Node6 -->
<g id="Node000006" class="node">
<title>Node6</title>
<g id="a_Node000006"><a xlink:href="classBitBully_1_1Board.html#a27969eddcd49d5644c812339aec41ae8" target="_top" xlink:title="Identify moves that create a &quot;double threat&quot; (forced win).">
<polygon fill="white" stroke="#666666" points="637,-561 478,-561 478,-542 637,-542 637,-561"/>
<text text-anchor="middle" x="557.5" y="-549" font-family="Helvetica,sans-Serif" font-size="10.00">BitBully::Board::doubleThreat</text>
</a>
</g>
</g>
<!-- Node3&#45;&gt;Node6 -->
<g id="edge5_Node000003_Node000006" class="edge">
<title>Node3&#45;&gt;Node6</title>
<g id="a_edge5_Node000003_Node000006"><a xlink:title=" ">
<path fill="none" stroke="#63b8ff" d="M369.05,-337.69C379.93,-375.61 413.48,-475.12 478,-527.5 483.2,-531.72 489.15,-535.21 495.38,-538.08"/>
<polygon fill="#63b8ff" stroke="#63b8ff" points="494.08,-541.33 504.66,-541.86 496.72,-534.85 494.08,-541.33"/>
</a>
</g>
</g>
<!-- Node7 -->
<g id="Node000007" class="node">
<title>Node7</title>
<g id="a_Node000007"><a xlink:href="classBitBully_1_1Board.html#aa1a6fa84e11fe0fc5a7abb64ee713cf6" target="_top" xlink:title="Identify candidate moves that yield a tactical advantage.">
<polygon fill="white" stroke="#666666" points="836,-510 687,-510 687,-491 836,-491 836,-510"/>
<text text-anchor="middle" x="761.5" y="-498" font-family="Helvetica,sans-Serif" font-size="10.00">BitBully::Board::findThreats</text>
</a>
</g>
</g>
<!-- Node3&#45;&gt;Node7 -->
<g id="edge6_Node000003_Node000007" class="edge">
<title>Node3&#45;&gt;Node7</title>
<g id="a_edge6_Node000003_Node000007"><a xlink:title=" ">
<path fill="none" stroke="#63b8ff" d="M369.53,-337.57C381,-372.67 414.85,-459.56 478,-494.5 552.05,-535.47 654.59,-523.95 713.59,-512.07"/>
<polygon fill="#63b8ff" stroke="#63b8ff" points="714.31,-515.5 723.38,-510.02 712.88,-508.65 714.31,-515.5"/>
</a>
</g>
</g>
<!-- Node9 -->
<g id="Node000009" class="node">
<title>Node9</title>
<g id="a_Node000009"><a xlink:href="classBitBully_1_1Board.html#a952c36a7a0faafbc49ab18f393ff6f6c" target="_top" xlink:title="Compute moves that do not lose immediately.">
<polygon fill="white" stroke="#666666" points="626.5,-485.5 488.5,-485.5 488.5,-455.5 626.5,-455.5 626.5,-485.5"/>
<text text-anchor="start" x="496.5" y="-473.5" font-family="Helvetica,sans-Serif" font-size="10.00">BitBully::Board::generate</text>
<text text-anchor="middle" x="557.5" y="-462.5" font-family="Helvetica,sans-Serif" font-size="10.00">NonLosingMoves</text>
</a>
</g>
</g>
<!-- Node3&#45;&gt;Node9 -->
<g id="edge8_Node000003_Node000009" class="edge">
<title>Node3&#45;&gt;Node9</title>
<g id="a_edge8_Node000003_Node000009"><a xlink:title=" ">
<path fill="none" stroke="#63b8ff" d="M375.8,-337.79C394.15,-362.74 433.75,-412.35 478,-441.5 483.54,-445.15 489.61,-448.42 495.83,-451.34"/>
<polygon fill="#63b8ff" stroke="#63b8ff" points="494.46,-454.55 505.02,-455.35 497.26,-448.14 494.46,-454.55"/>
</a>
</g>
</g>
<!-- Node10 -->
<g id="Node000010" class="node">
<title>Node10</title>
<g id="a_Node000010"><a xlink:href="classBitBully_1_1Board.html#a1935dee0e691ee8b048c1203f6144ce7" target="_top" xlink:title="Bitboard whose set bits mark the next reachable cell of every non&#45;full column.">
<polygon fill="white" stroke="#666666" points="850,-449 673,-449 673,-430 850,-430 850,-449"/>
<text text-anchor="middle" x="761.5" y="-437" font-family="Helvetica,sans-Serif" font-size="10.00">BitBully::Board::legalMovesMask</text>
</a>
</g>
</g>
<!-- Node3&#45;&gt;Node10 -->
<g id="edge11_Node000003_Node000010" class="edge">
<title>Node3&#45;&gt;Node10</title>
<g id="a_edge11_Node000003_Node000010"><a xlink:title=" ">
<path fill="none" stroke="#63b8ff" d="M379.4,-337.73C399.4,-357.79 437.7,-392.41 478,-408.5 536.45,-431.84 606.79,-439.62 662.66,-441.55"/>
<polygon fill="#63b8ff" stroke="#63b8ff" points="662.82,-445.05 672.92,-441.84 663.02,-438.05 662.82,-445.05"/>
</a>
</g>
</g>
<!-- Node11 -->
<g id="Node000011" class="node">
<title>Node11</title>
<g id="a_Node000011"><a xlink:href="classBitBully_1_1BitBully.html#a1e12396b723b223a7c473baed2bd4954" target="_top" xlink:title="Was an opening book successfully loaded?">
<polygon fill="white" stroke="#666666" points="606.5,-399.5 508.5,-399.5 508.5,-369.5 606.5,-369.5 606.5,-399.5"/>
<text text-anchor="start" x="516.5" y="-387.5" font-family="Helvetica,sans-Serif" font-size="10.00">BitBully::BitBully</text>
<text text-anchor="middle" x="557.5" y="-376.5" font-family="Helvetica,sans-Serif" font-size="10.00">::isBookLoaded</text>
</a>
</g>
</g>
<!-- Node3&#45;&gt;Node11 -->
<g id="edge10_Node000003_Node000011" class="edge">
<title>Node3&#45;&gt;Node11</title>
<g id="a_edge10_Node000003_Node000011"><a xlink:title=" ">
<path fill="none" stroke="#63b8ff" d="M410.61,-337.53C431.18,-344.28 455.8,-352.33 478,-359.5 484.92,-361.74 492.2,-364.07 499.41,-366.38"/>
<polygon fill="#63b8ff" stroke="#63b8ff" points="498.57,-369.78 509.16,-369.49 500.7,-363.11 498.57,-369.78"/>
</a>
</g>
</g>
<!-- Node12 -->
<g id="Node000012" class="node">
<title>Node12</title>
<g id="a_Node000012"><a xlink:href="classBitBully_1_1Board.html#a97357373ac0844cd2a7c07c87361131d" target="_top" xlink:title="Mirror the board around its central column.">
<polygon fill="white" stroke="#666666" points="620,-351 495,-351 495,-332 620,-332 620,-351"/>
<text text-anchor="middle" x="557.5" y="-339" font-family="Helvetica,sans-Serif" font-size="10.00">BitBully::Board::mirror</text>
</a>
</g>
</g>
<!-- Node3&#45;&gt;Node12 -->
<g id="edge12_Node000003_Node000012" class="edge">
<title>Node3&#45;&gt;Node12</title>
<g id="a_edge12_Node000003_Node000012"><a xlink:title=" ">
<path fill="none" stroke="#63b8ff" d="M413.32,-327.29C434.94,-329.44 460.88,-332.01 484.7,-334.38"/>
<polygon fill="#63b8ff" stroke="#63b8ff" points="484.47,-337.87 494.76,-335.37 485.16,-330.9 484.47,-337.87"/>
</a>
</g>
</g>
<!-- Node14 -->
<g id="Node000014" class="node">
<title>Node14</title>
<g id="a_Node000014"><a xlink:href="classBitBully_1_1Board.html#ab78567ab55b360e6680412a1df03eada" target="_top" xlink:title="Number of plies remaining until the board is full.">
<polygon fill="white" stroke="#666666" points="630.5,-314 484.5,-314 484.5,-295 630.5,-295 630.5,-314"/>
<text text-anchor="middle" x="557.5" y="-302" font-family="Helvetica,sans-Serif" font-size="10.00">BitBully::Board::movesLeft</text>
</a>
</g>
</g>
<!-- Node3&#45;&gt;Node14 -->
<g id="edge14_Node000003_Node000014" class="edge">
<title>Node3&#45;&gt;Node14</title>
<g id="a_edge14_Node000003_Node000014"><a xlink:title=" ">
<path fill="none" stroke="#63b8ff" d="M413.32,-317.96C431.8,-316.22 453.42,-314.19 474.18,-312.24"/>
<polygon fill="#63b8ff" stroke="#63b8ff" points="474.66,-315.71 484.29,-311.29 474.01,-308.74 474.66,-315.71"/>
</a>
</g>
</g>
<!-- Node15 -->
<g id="Node000015" class="node">
<title>Node15</title>
<g id="a_Node000015"><a xlink:href="classBitBully_1_1Board.html#a6ae4995235ad5092e1d7c38fcc990073" target="_top" xlink:title="Pick the best&#45;ranked move from a candidate set using a fixed priority order.">
<polygon fill="white" stroke="#666666" points="833,-164 690,-164 690,-145 833,-145 833,-164"/>
<text text-anchor="middle" x="761.5" y="-152" font-family="Helvetica,sans-Serif" font-size="10.00">BitBully::Board::nextMove</text>
</a>
</g>
</g>
<!-- Node3&#45;&gt;Node15 -->
<g id="edge16_Node000003_Node000015" class="edge">
<title>Node3&#45;&gt;Node15</title>
<g id="a_edge16_Node000003_Node000015"><a xlink:title=" ">
<path fill="none" stroke="#63b8ff" d="M413.27,-312.67C423.46,-309.06 433.64,-304.15 442,-297.5 466.33,-278.14 452.97,-255.96 478,-237.5 536.56,-194.31 567.31,-219.4 637,-198.5 667.66,-189.3 701.9,-176.93 726.54,-167.65"/>
<polygon fill="#63b8ff" stroke="#63b8ff" points="728.03,-170.83 736.14,-164.01 725.55,-164.28 728.03,-170.83"/>
</a>
</g>
</g>
<!-- Node16 -->
<g id="Node000016" class="node">
<title>Node16</title>
<g id="a_Node000016"><a xlink:href="classBitBully_1_1Board.html#a651aab94f4519f46a473d895a93736fe" target="_top" xlink:title="Apply a move (already encoded as a single&#45;bit mask) on a copy of this board.">
<polygon fill="white" stroke="#666666" points="622,-276.5 493,-276.5 493,-246.5 622,-246.5 622,-276.5"/>
<text text-anchor="start" x="501" y="-264.5" font-family="Helvetica,sans-Serif" font-size="10.00">BitBully::Board::playBit</text>
<text text-anchor="middle" x="557.5" y="-253.5" font-family="Helvetica,sans-Serif" font-size="10.00">MaskOnCopy</text>
</a>
</g>
</g>
<!-- Node3&#45;&gt;Node16 -->
<g id="edge18_Node000003_Node000016" class="edge">
<title>Node3&#45;&gt;Node16</title>
<g id="a_edge18_Node000003_Node000016"><a xlink:title=" ">
<path fill="none" stroke="#63b8ff" d="M411.44,-307.49C421.52,-304.21 432.12,-300.75 442,-297.5 458.02,-292.23 461.93,-290.63 478,-285.5 484.06,-283.56 490.39,-281.57 496.71,-279.61"/>
<polygon fill="#63b8ff" stroke="#63b8ff" points="498.09,-282.85 506.61,-276.55 496.02,-276.16 498.09,-282.85"/>
</a>
</g>
</g>
<!-- Node17 -->
<g id="Node000017" class="node">
<title>Node17</title>
<g id="a_Node000017"><a xlink:href="classBitBully_1_1MoveList.html#a55c8ef61ddcc488a4bac162d07223489" target="_top" xlink:title="Remove and return the highest&#45;priority move.">
<polygon fill="white" stroke="#666666" points="621.5,-190 493.5,-190 493.5,-171 621.5,-171 621.5,-190"/>
<text text-anchor="middle" x="557.5" y="-178" font-family="Helvetica,sans-Serif" font-size="10.00">BitBully::MoveList::pop</text>
</a>
</g>
</g>
<!-- Node3&#45;&gt;Node17 -->
<g id="edge20_Node000003_Node000017" class="edge">
<title>Node3&#45;&gt;Node17</title>
<g id="a_edge20_Node000003_Node000017"><a xlink:title=" ">
<path fill="none" stroke="#63b8ff" d="M413.36,-313.98C423.78,-310.3 434.04,-305.03 442,-297.5 474.2,-267.04 445.54,-234.68 478,-204.5 482.35,-200.46 487.35,-197.1 492.7,-194.3"/>
<polygon fill="#63b8ff" stroke="#63b8ff" points="494.28,-197.43 501.94,-190.11 491.39,-191.05 494.28,-197.43"/>
</a>
</g>
</g>
<!-- Node18 -->
<g id="Node000018" class="node">
<title>Node18</title>
<g id="a_Node000018"><a xlink:href="classBitBully_1_1Board.html#aa06de3e9e8e077b5e0c6cf75c5a0bd81" target="_top" xlink:title="Software popcount fallback used when no intrinsic is available.">
<polygon fill="white" stroke="#666666" points="628,-152.5 487,-152.5 487,-122.5 628,-122.5 628,-152.5"/>
<text text-anchor="start" x="495" y="-140.5" font-family="Helvetica,sans-Serif" font-size="10.00">BitBully::Board::popCount</text>
<text text-anchor="middle" x="557.5" y="-129.5" font-family="Helvetica,sans-Serif" font-size="10.00">Board</text>
</a>
</g>
</g>
<!-- Node3&#45;&gt;Node18 -->
<g id="edge21_Node000003_Node000018" class="edge">
<title>Node3&#45;&gt;Node18</title>
<g id="a_edge21_Node000003_Node000018"><a xlink:title=" ">
<path fill="none" stroke="#63b8ff" d="M413.18,-314.88C423.85,-311.17 434.27,-305.67 442,-297.5 484.98,-252.08 434.63,-206.54 478,-161.5 478.92,-160.55 479.87,-159.63 480.86,-158.75"/>
<polygon fill="#63b8ff" stroke="#63b8ff" points="483.07,-161.47 489,-152.69 478.89,-155.85 483.07,-161.47"/>
</a>
</g>
</g>
<!-- Node19 -->
<g id="Node000019" class="node">
<title>Node19</title>
<g id="a_Node000019"><a xlink:href="classBitBully_1_1BitBully.html#aeeb900218ac6cd155adc27ff4283c904" target="_top" xlink:title="Cheap evaluation: play out the game using safe heuristic moves.">
<polygon fill="white" stroke="#666666" points="606.5,-104.5 508.5,-104.5 508.5,-74.5 606.5,-74.5 606.5,-104.5"/>
<text text-anchor="start" x="516.5" y="-92.5" font-family="Helvetica,sans-Serif" font-size="10.00">BitBully::BitBully</text>
<text text-anchor="middle" x="557.5" y="-81.5" font-family="Helvetica,sans-Serif" font-size="10.00">::rollout</text>
</a>
</g>
</g>
<!-- Node3&#45;&gt;Node19 -->
<g id="edge22_Node000003_Node000019" class="edge">
<title>Node3&#45;&gt;Node19</title>
<g id="a_edge22_Node000003_Node000019"><a xlink:title=" ">
<path fill="none" stroke="#63b8ff" d="M413.17,-315.37C423.97,-311.65 434.45,-306.02 442,-297.5 497.26,-235.13 422.2,-175.39 478,-113.5 483.69,-107.19 490.99,-102.51 498.85,-99.05"/>
<polygon fill="#63b8ff" stroke="#63b8ff" points="500.12,-102.32 508.26,-95.53 497.66,-95.76 500.12,-102.32"/>
</a>
</g>
</g>
<!-- Node20 -->
<g id="Node000020" class="node">
<title>Node20</title>
<g id="a_Node000020"><a xlink:href="classBitBully_1_1Board.html#a0d3c307cd8aa9aa2654254b6e801db6b" target="_top" xlink:title="Sort candidate moves into a MoveList using a threat&#45;based heuristic.">
<polygon fill="white" stroke="#666666" points="630.5,-56 484.5,-56 484.5,-37 630.5,-37 630.5,-56"/>
<text text-anchor="middle" x="557.5" y="-44" font-family="Helvetica,sans-Serif" font-size="10.00">BitBully::Board::sortMoves</text>
</a>
</g>
</g>
<!-- Node3&#45;&gt;Node20 -->
<g id="edge24_Node000003_Node000020" class="edge">
<title>Node3&#45;&gt;Node20</title>
<g id="a_edge24_Node000003_Node000020"><a xlink:title=" ">
<path fill="none" stroke="#63b8ff" d="M413,-315.71C423.94,-311.99 434.53,-306.27 442,-297.5 509.65,-218.06 407.36,-142.3 478,-65.5 479.21,-64.19 480.49,-62.96 481.83,-61.81"/>
<polygon fill="#63b8ff" stroke="#63b8ff" points="483.93,-64.61 490.16,-56.04 479.94,-58.86 483.93,-64.61"/>
</a>
</g>
</g>
<!-- Node22 -->
<g id="Node000022" class="node">
<title>Node22</title>
<g id="a_Node000022"><a xlink:href="classBitBully_1_1Board.html#ad159897f318e91a46e1c229c08f7b52e" target="_top" xlink:title="Unique 64&#45;bit identifier of the position.">
<polygon fill="white" stroke="#666666" points="612.5,-19 502.5,-19 502.5,0 612.5,0 612.5,-19"/>
<text text-anchor="middle" x="557.5" y="-7" font-family="Helvetica,sans-Serif" font-size="10.00">BitBully::Board::uid</text>
</a>
</g>
</g>
<!-- Node3&#45;&gt;Node22 -->
<g id="edge27_Node000003_Node000022" class="edge">
<title>Node3&#45;&gt;Node22</title>
<g id="a_edge27_Node000003_Node000022"><a xlink:title=" ">
<path fill="none" stroke="#63b8ff" d="M413.14,-315.82C424.07,-312.1 434.62,-306.35 442,-297.5 519.5,-204.5 396.46,-116.98 478,-27.5 482.16,-22.93 487.23,-19.4 492.76,-16.69"/>
<polygon fill="#63b8ff" stroke="#63b8ff" points="494.42,-19.8 502.44,-12.87 491.85,-13.29 494.42,-19.8"/>
</a>
</g>
</g>
<!-- Node8 -->
<g id="Node000008" class="node">
<title>Node8</title>
<g id="a_Node000008"><a xlink:href="classBitBully_1_1Board.html#ab27e5321cdbbf9ffec1abe4897ce6ad1" target="_top" xlink:title="Isolate the least significant set bit of a bitboard.">
<polygon fill="white" stroke="#666666" points="995,-331 886,-331 886,-312 995,-312 995,-331"/>
<text text-anchor="middle" x="940.5" y="-319" font-family="Helvetica,sans-Serif" font-size="10.00">BitBully::Board::lsb</text>
</a>
</g>
</g>
<!-- Node7&#45;&gt;Node8 -->
<g id="edge7_Node000007_Node000008" class="edge">
<title>Node7&#45;&gt;Node8</title>
<g id="a_edge7_Node000007_Node000008"><a xlink:title=" ">
<path fill="none" stroke="#63b8ff" d="M792.02,-490.96C810.19,-484.03 833.15,-473.27 850,-458.5 889,-424.3 917.9,-369.2 931.26,-340.4"/>
<polygon fill="#63b8ff" stroke="#63b8ff" points="934.55,-341.63 935.47,-331.07 928.17,-338.75 934.55,-341.63"/>
</a>
</g>
</g>
<!-- Node9&#45;&gt;Node10 -->
<g id="edge9_Node000009_Node000010" class="edge">
<title>Node9&#45;&gt;Node10</title>
<g id="a_edge9_Node000009_Node000010"><a xlink:title=" ">
<path fill="none" stroke="#63b8ff" d="M626.61,-460.05C646.5,-457 668.3,-453.65 688.43,-450.56"/>
<polygon fill="#63b8ff" stroke="#63b8ff" points="689.11,-454 698.47,-449.02 688.05,-447.08 689.11,-454"/>
</a>
</g>
</g>
<!-- Node13 -->
<g id="Node000013" class="node">
<title>Node13</title>
<g id="a_Node000013"><a xlink:href="classBitBully_1_1Board.html#a15103f528a6674a3c6a78defe7e91a7b" target="_top" xlink:title="Construct an empty board with player Yellow to move.">
<polygon fill="white" stroke="#666666" points="823,-311 700,-311 700,-292 823,-292 823,-311"/>
<text text-anchor="middle" x="761.5" y="-299" font-family="Helvetica,sans-Serif" font-size="10.00">BitBully::Board::Board</text>
</a>
</g>
</g>
<!-- Node12&#45;&gt;Node13 -->
<g id="edge13_Node000012_Node000013" class="edge">
<title>Node12&#45;&gt;Node13</title>
<g id="a_edge13_Node000012_Node000013"><a xlink:title=" ">
<path fill="none" stroke="#63b8ff" d="M606.63,-331.97C635.35,-326.28 672.03,-319.02 702.37,-313.01"/>
<polygon fill="#63b8ff" stroke="#63b8ff" points="703.26,-316.4 712.39,-311.03 701.9,-309.54 703.26,-316.4"/>
</a>
</g>
</g>
<!-- Node15&#45;&gt;Node8 -->
<g id="edge17_Node000015_Node000008" class="edge">
<title>Node15&#45;&gt;Node8</title>
<g id="a_edge17_Node000015_Node000008"><a xlink:title=" ">
<path fill="none" stroke="#63b8ff" d="M772.78,-164.2C801.87,-191.64 884.99,-270.07 921.7,-304.71"/>
<polygon fill="#63b8ff" stroke="#63b8ff" points="919.51,-307.46 929.19,-311.77 924.32,-302.36 919.51,-307.46"/>
</a>
</g>
</g>
<!-- Node16&#45;&gt;Node13 -->
<g id="edge19_Node000016_Node000013" class="edge">
<title>Node16&#45;&gt;Node13</title>
<g id="a_edge19_Node000016_Node000013"><a xlink:title=" ">
<path fill="none" stroke="#63b8ff" d="M622.14,-274.1C647.75,-279.17 677.1,-284.98 702.15,-289.95"/>
<polygon fill="#63b8ff" stroke="#63b8ff" points="701.75,-293.43 712.24,-291.94 703.11,-286.57 701.75,-293.43"/>
</a>
</g>
</g>
<!-- Node19&#45;&gt;Node15 -->
<g id="edge23_Node000019_Node000015" class="edge">
<title>Node19&#45;&gt;Node15</title>
<g id="a_edge23_Node000019_Node000015"><a xlink:title=" ">
<path fill="none" stroke="#63b8ff" d="M606.71,-104.04C616.74,-107.12 627.22,-110.38 637,-113.5 665.76,-122.67 698.13,-133.43 722.52,-141.63"/>
<polygon fill="#63b8ff" stroke="#63b8ff" points="721.52,-144.99 732.11,-144.86 723.75,-138.35 721.52,-144.99"/>
</a>
</g>
</g>
<!-- Node20&#45;&gt;Node15 -->
<g id="edge26_Node000020_Node000015" class="edge">
<title>Node20&#45;&gt;Node15</title>
<g id="a_edge26_Node000020_Node000015"><a xlink:title=" ">
<path fill="none" stroke="#63b8ff" d="M610.56,-56.09C619.58,-58.59 628.72,-61.69 637,-65.5 678.27,-84.48 719.8,-118.09 742.63,-138.14"/>
<polygon fill="#63b8ff" stroke="#63b8ff" points="740.37,-140.81 750.16,-144.85 745.03,-135.59 740.37,-140.81"/>
</a>
</g>
</g>
<!-- Node21 -->
<g id="Node000021" class="node">
<title>Node21</title>
<g id="a_Node000021"><a xlink:href="classBitBully_1_1MoveList.html#a6f8c35f7aad683ec4e1458aa235c7810" target="_top" xlink:title="Insert a (move, score) pair while keeping the queue sorted.">
<polygon fill="white" stroke="#666666" points="813.5,-61.5 709.5,-61.5 709.5,-31.5 813.5,-31.5 813.5,-61.5"/>
<text text-anchor="start" x="717.5" y="-49.5" font-family="Helvetica,sans-Serif" font-size="10.00">BitBully::MoveList</text>
<text text-anchor="middle" x="761.5" y="-38.5" font-family="Helvetica,sans-Serif" font-size="10.00">::insert</text>
</a>
</g>
</g>
<!-- Node20&#45;&gt;Node21 -->
<g id="edge25_Node000020_Node000021" class="edge">
<title>Node20&#45;&gt;Node21</title>
<g id="a_edge25_Node000020_Node000021"><a xlink:title=" ">
<path fill="none" stroke="#63b8ff" d="M630.57,-46.5C653.07,-46.5 677.66,-46.5 699.33,-46.5"/>
<polygon fill="#63b8ff" stroke="#63b8ff" points="699.39,-50 709.39,-46.5 699.39,-43 699.39,-50"/>
</a>
</g>
</g>
<!-- Node24 -->
<g id="Node000024" class="node">
<title>Node24</title>
<g id="a_Node000024"><a xlink:href="classBitBully_1_1Board.html#a1c11e3f18b58c4b4d342d2738e03be17" target="_top" xlink:title="Check whether dropping a stone in column is legal.">
<polygon fill="white" stroke="#666666" points="442,-289 286,-289 286,-270 442,-270 442,-289"/>
<text text-anchor="middle" x="364" y="-277" font-family="Helvetica,sans-Serif" font-size="10.00">BitBully::Board::isLegalMove</text>
</a>
</g>
</g>
<!-- Node23&#45;&gt;Node24 -->
<g id="edge29_Node000023_Node000024" class="edge">
<title>Node23&#45;&gt;Node24</title>
<g id="a_edge29_Node000023_Node000024"><a xlink:title=" ">
<path fill="none" stroke="#63b8ff" d="M250.08,-279.5C258.33,-279.5 266.98,-279.5 275.65,-279.5"/>
<polygon fill="#63b8ff" stroke="#63b8ff" points="275.83,-283 285.83,-279.5 275.83,-276 275.83,-283"/>
</a>
</g>
</g>
</g>
</svg>
