<?xml version="1.0" encoding="UTF-8" standalone="no"?>
<!DOCTYPE svg PUBLIC "-//W3C//DTD SVG 1.1//EN"
 "http://www.w3.org/Graphics/SVG/1.1/DTD/svg11.dtd">
<!-- Generated by graphviz version 2.43.0 (0)
 -->
<!-- Title: BitBully::Board::uid Pages: 1 -->
<svg width="856pt" height="267pt"
 viewBox="0.00 0.00 856.00 266.52" xmlns="http://www.w3.org/2000/svg" xmlns:xlink="http://www.w3.org/1999/xlink">
<g id="graph0" class="graph" transform="scale(1 1) rotate(0) translate(4 262.52)">
<title>BitBully::Board::uid</title>
<!-- Node1 -->
<g id="Node000001" class="node">
<title>Node1</title>
<g id="a_Node000001"><a xlink:title="Unique 64&#45;bit identifier of the position.">
<polygon fill="#999999" stroke="#666666" points="848,-220.52 738,-220.52 738,-201.52 848,-201.52 848,-220.52"/>
<text text-anchor="middle" x="793" y="-208.52" font-family="Helvetica,sans-Serif" font-size="10.00">BitBully::Board::uid</text>
</a>
</g>
</g>
<!-- Node2 -->
<g id="Node000002" class="node">
<title>Node2</title>
<g id="a_Node000002"><a xlink:href="classBitBully_1_1Board.html#acfc579a8c01d89956adc69dc23006714" target="_top" xlink:title="Enumerate every reachable position from this board within a depth.">
<polygon fill="white" stroke="#666666" points="300,-258.52 149,-258.52 149,-239.52 300,-239.52 300,-258.52"/>
<text text-anchor="middle" x="224.5" y="-246.52" font-family="Helvetica,sans-Serif" font-size="10.00">BitBully::Board::allPositions</text>
</a>
</g>
</g>
<!-- Node1&#45;&gt;Node2 -->
<g id="edge1_Node000001_Node000002" class="edge">
<title>Node1&#45;&gt;Node2</title>
<g id="a_edge1_Node000001_Node000002"><a xlink:title=" ">
<path fill="none" stroke="#63b8ff" d="M727.79,-221.85C719.14,-223.06 710.37,-224.17 702,-225.02 560.48,-239.56 394.38,-245.39 300.37,-247.66"/>
<polygon fill="#63b8ff" stroke="#63b8ff" points="728.47,-225.28 737.86,-220.38 727.46,-218.36 728.47,-225.28"/>
</a>
</g>
</g>
<!-- Node3 -->
<g id="Node000003" class="node">
<title>Node3</title>
<g id="a_Node000003"><a xlink:href="bitbully__core_8cpp.html#af5c1df2ff1f6f9a528f149e1c65f6ad2" target="_top" xlink:title="Define the bitbully_core extension module.">
<polygon fill="white" stroke="#666666" points="113,-144.52 0,-144.52 0,-125.52 113,-125.52 113,-144.52"/>
<text text-anchor="middle" x="56.5" y="-132.52" font-family="Helvetica,sans-Serif" font-size="10.00">PYBIND11_MODULE</text>
</a>
</g>
</g>
<!-- Node1&#45;&gt;Node3 -->
<g id="edge15_Node000001_Node000003" class="edge">
<title>Node1&#45;&gt;Node3</title>
<g id="a_edge15_Node000001_Node000003"><a xlink:title=" ">
<path fill="none" stroke="#63b8ff" d="M727.49,-211.02C672.38,-211.02 590.98,-211.02 520,-211.02 520,-211.02 520,-211.02 384,-211.02 268.18,-211.02 135.13,-165.1 81.63,-144.65"/>
<polygon fill="#63b8ff" stroke="#63b8ff" points="727.81,-214.52 737.81,-211.02 727.81,-207.52 727.81,-214.52"/>
</a>
</g>
</g>
<!-- Node4 -->
<g id="Node000004" class="node">
<title>Node4</title>
<g id="a_Node000004"><a xlink:href="classBitBully_1_1BitBully.html#ab560bedc498b3e70e5eddfef4a32b533" target="_top" xlink:title="Negamax search with alpha&#45;beta pruning, transposition table and opening book consultation.">
<polygon fill="white" stroke="#666666" points="702,-155.02 604,-155.02 604,-125.02 702,-125.02 702,-155.02"/>
<text text-anchor="start" x="612" y="-143.02" font-family="Helvetica,sans-Serif" font-size="10.00">BitBully::BitBully</text>
<text text-anchor="middle" x="653" y="-132.02" font-family="Helvetica,sans-Serif" font-size="10.00">::negamax</text>
</a>
</g>
</g>
<!-- Node1&#45;&gt;Node4 -->
<g id="edge3_Node000001_Node000004" class="edge">
<title>Node1&#45;&gt;Node4</title>
<g id="a_edge3_Node000001_Node000004"><a xlink:title=" ">
<path fill="none" stroke="#63b8ff" d="M764.32,-196.78C740.86,-184.71 707.32,-167.46 683.39,-155.15"/>
<polygon fill="#63b8ff" stroke="#63b8ff" points="762.9,-199.99 773.39,-201.45 766.1,-193.76 762.9,-199.99"/>
</a>
</g>
</g>
<!-- Node2&#45;&gt;Node3 -->
<g id="edge2_Node000002_Node000003" class="edge">
<title>Node2&#45;&gt;Node3</title>
<g id="a_edge2_Node000002_Node000003"><a xlink:title=" ">
<path fill="none" stroke="#63b8ff" d="M172.62,-236.16C164.43,-233.11 156.27,-229.43 149,-225.02 112.21,-202.75 78.89,-162.91 64.71,-144.65"/>
<polygon fill="#63b8ff" stroke="#63b8ff" points="171.59,-239.51 182.19,-239.46 173.87,-232.89 171.59,-239.51"/>
</a>
</g>
</g>
<!-- Node4&#45;&gt;Node3 -->
<g id="edge14_Node000004_Node000003" class="edge">
<title>Node4&#45;&gt;Node3</title>
<g id="a_edge14_Node000004_Node000003"><a xlink:title=" ">
<path fill="none" stroke="#63b8ff" d="M593.65,-141.45C499.89,-143.46 309.89,-146.29 149,-141.02 137.38,-140.64 124.95,-139.99 113.12,-139.26"/>
<polygon fill="#63b8ff" stroke="#63b8ff" points="593.86,-144.95 603.78,-141.23 593.7,-137.95 593.86,-144.95"/>
</a>
</g>
</g>
<!-- Node4&#45;&gt;Node4 -->
<g id="edge11_Node000004_Node000004" class="edge">
<title>Node4&#45;&gt;Node4</title>
<g id="a_edge11_Node000004_Node000004"><a xlink:title=" ">
<path fill="none" stroke="#63b8ff" d="M676.46,-165.62C673.25,-170 665.43,-173.02 653,-173.02 632.06,-173.02 624.21,-164.43 629.45,-155.3"/>
<polygon fill="#63b8ff" stroke="#63b8ff" points="679.96,-165.33 676.55,-155.3 672.96,-165.27 679.96,-165.33"/>
</a>
</g>
</g>
<!-- Node5 -->
<g id="Node000005" class="node">
<title>Node5</title>
<g id="a_Node000005"><a xlink:href="classBitBully_1_1BitBully.html#a76cec6e90a0420017774f74dd489d251" target="_top" xlink:title="Solve a position using the MTD(f) driver.">
<polygon fill="white" stroke="#666666" points="568,-129.02 470,-129.02 470,-99.02 568,-99.02 568,-129.02"/>
<text text-anchor="start" x="478" y="-117.02" font-family="Helvetica,sans-Serif" font-size="10.00">BitBully::BitBully</text>
<text text-anchor="middle" x="519" y="-106.02" font-family="Helvetica,sans-Serif" font-size="10.00">::mtdf</text>
</a>
</g>
</g>
<!-- Node4&#45;&gt;Node5 -->
<g id="edge4_Node000004_Node000005" class="edge">
<title>Node4&#45;&gt;Node5</title>
<g id="a_edge4_Node000004_Node000005"><a xlink:title=" ">
<path fill="none" stroke="#63b8ff" d="M593.99,-128.6C585.38,-126.9 576.59,-125.17 568.21,-123.52"/>
<polygon fill="#63b8ff" stroke="#63b8ff" points="593.48,-132.07 603.97,-130.56 594.84,-125.2 593.48,-132.07"/>
</a>
</g>
</g>
<!-- Node9 -->
<g id="Node000009" class="node">
<title>Node9</title>
<g id="a_Node000009"><a xlink:href="classBitBully_1_1BitBully.html#a9c73ca66a2a7660b5125cd3c36535002" target="_top" xlink:title="Alternative driver based on a binary search of zero&#45;width windows.">
<polygon fill="white" stroke="#666666" points="568,-46.02 470,-46.02 470,-16.02 568,-16.02 568,-46.02"/>
<text text-anchor="start" x="478" y="-34.02" font-family="Helvetica,sans-Serif" font-size="10.00">BitBully::BitBully</text>
<text text-anchor="middle" x="519" y="-23.02" font-family="Helvetica,sans-Serif" font-size="10.00">::nullWindow</text>
</a>
</g>
</g>
<!-- Node4&#45;&gt;Node9 -->
<g id="edge12_Node000004_Node000009" class="edge">
<title>Node4&#45;&gt;Node9</title>
<g id="a_edge12_Node000004_Node000009"><a xlink:title=" ">
<path fill="none" stroke="#63b8ff" d="M625.73,-118.33C599.81,-96.93 560.88,-64.78 538.2,-46.05"/>
<polygon fill="#63b8ff" stroke="#63b8ff" points="623.71,-121.2 633.65,-124.87 628.16,-115.8 623.71,-121.2"/>
</a>
</g>
</g>
<!-- Node5&#45;&gt;Node3 -->
<g id="edge6_Node000005_Node000003" class="edge">
<title>Node5&#45;&gt;Node3</title>
<g id="a_edge6_Node000005_Node000003"><a xlink:title=" ">
<path fill="none" stroke="#63b8ff" d="M459.35,-116.7C369.92,-120.78 200.64,-128.5 113.08,-132.49"/>
<polygon fill="#63b8ff" stroke="#63b8ff" points="459.76,-120.18 469.59,-116.23 459.44,-113.19 459.76,-120.18"/>
</a>
</g>
</g>
<!-- Node6 -->
<g id="Node000006" class="node">
<title>Node6</title>
<g id="a_Node000006"><a xlink:href="src_2main_8cpp.html#aee608aedd5b0b58f2966c2ff15101925" target="_top" xlink:title="Entry point of the benchmark binary.">
<polygon fill="white" stroke="#666666" points="405.5,-106.52 364.5,-106.52 364.5,-87.52 405.5,-87.52 405.5,-106.52"/>
<text text-anchor="middle" x="385" y="-94.52" font-family="Helvetica,sans-Serif" font-size="10.00">main</text>
</a>
</g>
</g>
<!-- Node5&#45;&gt;Node6 -->
<g id="edge5_Node000005_Node000006" class="edge">
<title>Node5&#45;&gt;Node6</title>
<g id="a_edge5_Node000005_Node000006"><a xlink:title=" ">
<path fill="none" stroke="#63b8ff" d="M459.9,-106.54C440.41,-104.03 419.98,-101.4 405.56,-99.54"/>
<polygon fill="#63b8ff" stroke="#63b8ff" points="459.61,-110.03 469.97,-107.84 460.5,-103.09 459.61,-110.03"/>
</a>
</g>
</g>
<!-- Node7 -->
<g id="Node000007" class="node">
<title>Node7</title>
<g id="a_Node000007"><a xlink:href="classBitBully_1_1BitBully.html#a8c405dc66e7e933d1a46b43ddd2492a8" target="_top" xlink:title="Evaluate the move that drops a stone in column.">
<polygon fill="white" stroke="#666666" points="434,-69.02 336,-69.02 336,-39.02 434,-39.02 434,-69.02"/>
<text text-anchor="start" x="344" y="-57.02" font-family="Helvetica,sans-Serif" font-size="10.00">BitBully::BitBully</text>
<text text-anchor="middle" x="385" y="-46.02" font-family="Helvetica,sans-Serif" font-size="10.00">::scoreMove</text>
</a>
</g>
</g>
<!-- Node5&#45;&gt;Node7 -->
<g id="edge7_Node000005_Node000007" class="edge">
<title>Node5&#45;&gt;Node7</title>
<g id="a_edge7_Node000005_Node000007"><a xlink:title=" ">
<path fill="none" stroke="#63b8ff" d="M475.46,-94.69C457.27,-86.42 436.34,-76.91 419.3,-69.16"/>
<polygon fill="#63b8ff" stroke="#63b8ff" points="474.14,-97.93 484.69,-98.88 477.04,-91.56 474.14,-97.93"/>
</a>
</g>
</g>
<!-- Node7&#45;&gt;Node3 -->
<g id="edge8_Node000007_Node000003" class="edge">
<title>Node7&#45;&gt;Node3</title>
<g id="a_edge8_Node000007_Node000003"><a xlink:title=" ">
<path fill="none" stroke="#63b8ff" d="M325.99,-70.99C317.29,-73.42 308.42,-75.83 300,-78.02 230.73,-96.05 149.67,-114.59 101.02,-125.45"/>
<polygon fill="#63b8ff" stroke="#63b8ff" points="327.02,-74.33 335.69,-68.25 325.12,-67.6 327.02,-74.33"/>
</a>
</g>
</g>
<!-- Node8 -->
<g id="Node000008" class="node">
<title>Node8</title>
<g id="a_Node000008"><a xlink:href="classBitBully_1_1BitBully.html#ab4c3408f62623c65181ff00f1d5d6044" target="_top" xlink:title="Evaluate every column move from b.">
<polygon fill="white" stroke="#666666" points="273.5,-69.02 175.5,-69.02 175.5,-39.02 273.5,-39.02 273.5,-69.02"/>
<text text-anchor="start" x="183.5" y="-57.02" font-family="Helvetica,sans-Serif" font-size="10.00">BitBully::BitBully</text>
<text text-anchor="middle" x="224.5" y="-46.02" font-family="Helvetica,sans-Serif" font-size="10.00">::scoreMoves</text>
</a>
</g>
</g>
<!-- Node7&#45;&gt;Node8 -->
<g id="edge9_Node000007_Node000008" class="edge">
<title>Node7&#45;&gt;Node8</title>
<g id="a_edge9_Node000007_Node000008"><a xlink:title=" ">
<path fill="none" stroke="#63b8ff" d="M325.21,-54.02C308.22,-54.02 289.88,-54.02 273.62,-54.02"/>
<polygon fill="#63b8ff" stroke="#63b8ff" points="325.58,-57.52 335.58,-54.02 325.58,-50.52 325.58,-57.52"/>
</a>
</g>
</g>
<!-- Node8&#45;&gt;Node3 -->
<g id="edge10_Node000008_Node000003" class="edge">
<title>Node8&#45;&gt;Node3</title>
<g id="a_edge10_Node000008_Node000003"><a xlink:title=" ">
<path fill="none" stroke="#63b8ff" d="M172.19,-72.86C164.34,-76.07 156.4,-79.51 149,-83.02 121.28,-96.21 90.54,-114.48 72.68,-125.49"/>
<polygon fill="#63b8ff" stroke="#63b8ff" points="173.68,-76.04 181.67,-69.08 171.08,-69.54 173.68,-76.04"/>
</a>
</g>
</g>
<!-- Node9&#45;&gt;Node3 -->
<g id="edge13_Node000009_Node000003" class="edge">
<title>Node9&#45;&gt;Node3</title>
<g id="a_edge13_Node000009_Node000003"><a xlink:title=" ">
<path fill="none" stroke="#63b8ff" d="M460.14,-16.62C384.74,-0.95 250.57,16.19 149,-30.02 104.76,-50.15 73.58,-103.4 62.23,-125.35"/>
<polygon fill="#63b8ff" stroke="#63b8ff" points="459.42,-20.05 469.93,-18.72 460.88,-13.2 459.42,-20.05"/>
</a>
</g>
</g>
</g>
</svg>
