<?xml version="1.0" encoding="UTF-8" standalone="no"?>
<!DOCTYPE svg PUBLIC "-//W3C//DTD SVG 1.1//EN"
 "http://www.w3.org/Graphics/SVG/1.1/DTD/svg11.dtd">
<!-- Generated by graphviz version 2.43.0 (0)
 -->
<!-- Title: BitBully::BitBully::mtdf Pages: 1 -->
<svg width="793pt" height="643pt"
 viewBox="0.00 0.00 793.00 643.00" xmlns="http://www.w3.org/2000/svg" xmlns:xlink="http://www.w3.org/1999/xlink">
<g id="graph0" class="graph" transform="scale(1 1) rotate(0) translate(4 639)">
<title>BitBully::BitBully::mtdf</title>
<!-- Node1 -->
<g id="Node000001" class="node">
<title>Node1</title>
<g id="a_Node000001"><a xlink:title="Solve a position using the MTD(f) driver.">
<polygon fill="#999999" stroke="#666666" points="98,-337.5 0,-337.5 0,-307.5 98,-307.5 98,-337.5"/>
<text text-anchor="start" x="8" y="-325.5" font-family="Helvetica,sans-Serif" font-size="10.00">BitBully::BitBully</text>
<text text-anchor="middle" x="49" y="-314.5" font-family="Helvetica,sans-Serif" font-size="10.00">::mtdf</text>
</a>
</g>
</g>
<!-- Node2 -->
<g id="Node000002" class="node">
<title>Node2</title>
<g id="a_Node000002"><a xlink:href="classBitBully_1_1BitBully.html#ab560bedc498b3e70e5eddfef4a32b533" target="_top" xlink:title="Negamax search with alpha&#45;beta pruning, transposition table and opening book consultation.">
<polygon fill="white" stroke="#666666" points="232,-337.5 134,-337.5 134,-307.5 232,-307.5 232,-337.5"/>
<text text-anchor="start" x="142" y="-325.5" font-family="Helvetica,sans-Serif" font-size="10.00">BitBully::BitBully</text>
<text text-anchor="middle" x="183" y="-314.5" font-family="Helvetica,sans-Serif" font-size="10.00">::negamax</text>
</a>
</g>
</g>
<!-- Node1&#45;&gt;Node2 -->
<g id="edge1_Node000001_Node000002" class="edge">
<title>Node1&#45;&gt;Node2</title>
<g id="a_edge1_Node000001_Node000002"><a xlink:title=" ">
<path fill="none" stroke="#63b8ff" d="M98.03,-322.5C106.31,-322.5 115,-322.5 123.52,-322.5"/>
<polygon fill="#63b8ff" stroke="#63b8ff" points="123.79,-326 133.79,-322.5 123.79,-319 123.79,-326"/>
</a>
</g>
</g>
<!-- Node2&#45;&gt;Node2 -->
<g id="edge14_Node000002_Node000002" class="edge">
<title>Node2&#45;&gt;Node2</title>
<g id="a_edge14_Node000002_Node000002"><a xlink:title=" ">
<path fill="none" stroke="#63b8ff" d="M159.45,-337.78C154.21,-346.91 162.06,-355.5 183,-355.5 195.43,-355.5 203.25,-352.47 206.46,-348.1"/>
<polygon fill="#63b8ff" stroke="#63b8ff" points="209.96,-347.81 206.55,-337.78 202.96,-347.74 209.96,-347.81"/>
</a>
</g>
</g>
<!-- Node3 -->
<g id="Node000003" class="node">
<title>Node3</title>
<g id="a_Node000003"><a xlink:href="classBitBully_1_1Board.html#a31d1327bf9b59e6fff94d80443c7699e" target="_top" xlink:title="Does the player to move have an immediately winning move?">
<polygon fill="white" stroke="#666666" points="413,-635 282,-635 282,-616 413,-616 413,-635"/>
<text text-anchor="middle" x="347.5" y="-623" font-family="Helvetica,sans-Serif" font-size="10.00">BitBully::Board::canWin</text>
</a>
</g>
</g>
<!-- Node2&#45;&gt;Node3 -->
<g id="edge2_Node000002_Node000003" class="edge">
<title>Node2&#45;&gt;Node3</title>
<g id="a_edge2_Node000002_Node000003"><a xlink:title=" ">
<path fill="none" stroke="#63b8ff" d="M183.54,-337.55C182.96,-384.91 187.97,-532.22 268,-607.5 269.53,-608.94 271.15,-610.27 272.84,-611.5"/>
<polygon fill="#63b8ff" stroke="#63b8ff" points="271.47,-614.76 281.85,-616.86 275.05,-608.74 271.47,-614.76"/>
</a>
</g>
</g>
<!-- Node4 -->
<g id="Node000004" class="node">
<title>Node4</title>
<g id="a_Node000004"><a xlink:href="classBitBully_1_1Board.html#a2041fa032b47cab0dba8639a2de17090" target="_top" xlink:title="Number of stones currently placed on the board.">
<polygon fill="white" stroke="#666666" points="425,-598 270,-598 270,-579 425,-579 425,-598"/>
<text text-anchor="middle" x="347.5" y="-586" font-family="Helvetica,sans-Serif" font-size="10.00">BitBully::Board::countTokens</text>
</a>
</g>
</g>
<!-- Node2&#45;&gt;Node4 -->
<g id="edge3_Node000002_Node000004" class="edge">
<title>Node2&#45;&gt;Node4</title>
<g id="a_edge3_Node000002_Node000004"><a xlink:title=" ">
<path fill="none" stroke="#63b8ff" d="M184.31,-337.75C186.07,-381.22 197.34,-506.65 268,-570.5 269.17,-571.55 270.38,-572.55 271.64,-573.49"/>
<polygon fill="#63b8ff" stroke="#63b8ff" points="270.14,-576.68 280.5,-578.94 273.82,-570.72 270.14,-576.68"/>
</a>
</g>
</g>
<!-- Node5 -->
<g id="Node000005" class="node">
<title>Node5</title>
<g id="a_Node000005"><a xlink:href="classBitBully_1_1Board.html#a27969eddcd49d5644c812339aec41ae8" target="_top" xlink:title="Identify moves that create a &quot;double threat&quot; (forced win).">
<polygon fill="white" stroke="#666666" points="427,-561 268,-561 268,-542 427,-542 427,-561"/>
<text text-anchor="middle" x="347.5" y="-549" font-family="Helvetica,sans-Serif" font-size="10.00">BitBully::Board::doubleThreat</text>
</a>
</g>
</g>
<!-- Node2&#45;&gt;Node5 -->
<g id="edge4_Node000002_Node000005" class="edge">
<title>Node2&#45;&gt;Node5</title>
<g id="a_edge4_Node000002_Node000005"><a xlink:title=" ">
<path fill="none" stroke="#63b8ff" d="M185.77,-337.62C191.01,-375.36 209.88,-474.5 268,-527.5 272.45,-531.56 277.58,-534.93 283.03,-537.74"/>
<polygon fill="#63b8ff" stroke="#63b8ff" points="281.89,-541.06 292.45,-541.94 284.74,-534.67 281.89,-541.06"/>
</a>
</g>
</g>
<!-- Node6 -->
<g id="Node000006" class="node">
<title>Node6</title>
<g id="a_Node000006"><a xlink:href="classBitBully_1_1Board.html#aa1a6fa84e11fe0fc5a7abb64ee713cf6" target="_top" xlink:title="Identify candidate moves that yield a tactical advantage.">
<polygon fill="white" stroke="#666666" points="626,-510 477,-510 477,-491 626,-491 626,-510"/>
<text text-anchor="middle" x="551.5" y="-498" font-family="Helvetica,sans-Serif" font-size="10.00">BitBully::Board::findThreats</text>
</a>
</g>
</g>
<!-- Node2&#45;&gt;Node6 -->
<g id="edge5_Node000002_Node000006" class="edge">
<title>Node2&#45;&gt;Node6</title>
<g id="a_edge5_Node000002_Node000006"><a xlink:title=" ">
<path fill="none" stroke="#63b8ff" d="M186.13,-337.66C191.94,-372.58 211.58,-458.43 268,-494.5 341.26,-541.34 448.5,-526.19 507.54,-512.44"/>
<polygon fill="#63b8ff" stroke="#63b8ff" points="508.39,-515.84 517.29,-510.08 506.75,-509.04 508.39,-515.84"/>
</a>
</g>
</g>
<!-- Node8 -->
<g id="Node000008" class="node">
<title>Node8</title>
<g id="a_Node000008"><a xlink:href="classBitBully_1_1Board.html#a952c36a7a0faafbc49ab18f393ff6f6c" target="_top" xlink:title="Compute moves that do not lose immediately.">
<polygon fill="white" stroke="#666666" points="416.5,-485.5 278.5,-485.5 278.5,-455.5 416.5,-455.5 416.5,-485.5"/>
<text text-anchor="start" x="286.5" y="-473.5" font-family="Helvetica,sans-Serif" font-size="10.00">BitBully::Board::generate</text>
<text text-anchor="middle" x="347.5" y="-462.5" font-family="Helvetica,sans-Serif" font-size="10.00">NonLosingMoves</text>
</a>
</g>
</g>
<!-- Node2&#45;&gt;Node8 -->
<g id="edge7_Node000002_Node000008" class="edge">
<title>Node2&#45;&gt;Node8</title>
<g id="a_edge7_Node000002_Node000008"><a xlink:title=" ">
<path fill="none" stroke="#63b8ff" d="M191.04,-337.9C203.26,-363.01 230.7,-412.85 268,-441.5 272.65,-445.07 277.79,-448.24 283.14,-451.04"/>
<polygon fill="#63b8ff" stroke="#63b8ff" points="281.77,-454.26 292.3,-455.41 284.78,-447.95 281.77,-454.26"/>
</a>
</g>
</g>
<!-- Node9 -->
<g id="Node000009" class="node">
<title>Node9</title>
<g id="a_Node000009"><a xlink:href="classBitBully_1_1Board.html#a1935dee0e691ee8b048c1203f6144ce7" target="_top" xlink:title="Bitboard whose set bits mark the next reachable cell of every non&#45;full column.">
<polygon fill="white" stroke="#666666" points="640,-449 463,-449 463,-430 640,-430 640,-449"/>
<text text-anchor="middle" x="551.5" y="-437" font-family="Helvetica,sans-Serif" font-size="10.00">BitBully::Board::legalMovesMask</text>
</a>
</g>
</g>
<!-- Node2&#45;&gt;Node9 -->
<g id="edge10_Node000002_Node000009" class="edge">
<title>Node2&#45;&gt;Node9</title>
<g id="a_edge10_Node000002_Node000009"><a xlink:title=" ">
<path fill="none" stroke="#63b8ff" d="M193.81,-337.73C207.66,-357.8 234.98,-392.42 268,-408.5 325.12,-436.32 396.25,-444 452.85,-444.75"/>
<polygon fill="#63b8ff" stroke="#63b8ff" points="452.86,-448.25 462.88,-444.82 452.9,-441.25 452.86,-448.25"/>
</a>
</g>
</g>
<!-- Node10 -->
<g id="Node000010" class="node">
<title>Node10</title>
<g id="a_Node000010"><a xlink:href="classBitBully_1_1BitBully.html#a1e12396b723b223a7c473baed2bd4954" target="_top" xlink:title="Was an opening book successfully loaded?">
<polygon fill="white" stroke="#666666" points="396.5,-399.5 298.5,-399.5 298.5,-369.5 396.5,-369.5 396.5,-399.5"/>
<text text-anchor="start" x="306.5" y="-387.5" font-family="Helvetica,sans-Serif" font-size="10.00">BitBully::BitBully</text>
<text text-anchor="middle" x="347.5" y="-376.5" font-family="Helvetica,sans-Serif" font-size="10.00">::isBookLoaded</text>
</a>
</g>
</g>
<!-- Node2&#45;&gt;Node10 -->
<g id="edge9_Node000002_Node000010" class="edge">
<title>Node2&#45;&gt;Node10</title>
<g id="a_edge9_Node000002_Node000010"><a xlink:title=" ">
<path fill="none" stroke="#63b8ff" d="M214.72,-337.54C230.45,-344.95 250.03,-353.72 268,-360.5 274.69,-363.02 281.78,-365.48 288.84,-367.8"/>
<polygon fill="#63b8ff" stroke="#63b8ff" points="287.84,-371.15 298.43,-370.87 289.97,-364.49 287.84,-371.15"/>
</a>
</g>
</g>
<!-- Node11 -->
<g id="Node000011" class="node">
<title>Node11</title>
<g id="a_Node000011"><a xlink:href="classBitBully_1_1Board.html#a97357373ac0844cd2a7c07c87361131d" target="_top" xlink:title="Mirror the board around its central column.">
<polygon fill="white" stroke="#666666" points="410,-351 285,-351 285,-332 410,-332 410,-351"/>
<text text-anchor="middle" x="347.5" y="-339" font-family="Helvetica,sans-Serif" font-size="10.00">BitBully::Board::mirror</text>
</a>
</g>
</g>
<!-- Node2&#45;&gt;Node11 -->
<g id="edge11_Node000002_Node000011" class="edge">
<title>Node2&#45;&gt;Node11</title>
<g id="a_edge11_Node000002_Node000011"><a xlink:title=" ">
<path fill="none" stroke="#63b8ff" d="M232.32,-328.15C245.57,-329.7 260.22,-331.41 274.49,-333.08"/>
<polygon fill="#63b8ff" stroke="#63b8ff" points="274.45,-336.6 284.79,-334.28 275.26,-329.65 274.45,-336.6"/>
</a>
</g>
</g>
<!-- Node13 -->
<g id="Node000013" class="node">
<title>Node13</title>
<g id="a_Node000013"><a xlink:href="classBitBully_1_1Board.html#ab78567ab55b360e6680412a1df03eada" target="_top" xlink:title="Number of plies remaining until the board is full.">
<polygon fill="white" stroke="#666666" points="420.5,-314 274.5,-314 274.5,-295 420.5,-295 420.5,-314"/>
<text text-anchor="middle" x="347.5" y="-302" font-family="Helvetica,sans-Serif" font-size="10.00">BitBully::Board::movesLeft</text>
</a>
</g>
</g>
<!-- Node2&#45;&gt;Node13 -->
<g id="edge13_Node000002_Node000013" class="edge">
<title>Node2&#45;&gt;Node13</title>
<g id="a_edge13_Node000002_Node000013"><a xlink:title=" ">
<path fill="none" stroke="#63b8ff" d="M232.32,-317.15C242.42,-316.03 253.33,-314.82 264.27,-313.61"/>
<polygon fill="#63b8ff" stroke="#63b8ff" points="264.75,-317.08 274.3,-312.5 263.98,-310.12 264.75,-317.08"/>
</a>
</g>
</g>
<!-- Node14 -->
<g id="Node000014" class="node">
<title>Node14</title>
<g id="a_Node000014"><a xlink:href="classBitBully_1_1Board.html#a6ae4995235ad5092e1d7c38fcc990073" target="_top" xlink:title="Pick the best&#45;ranked move from a candidate set using a fixed priority order.">
<polygon fill="white" stroke="#666666" points="623,-164 480,-164 480,-145 623,-145 623,-164"/>
<text text-anchor="middle" x="551.5" y="-152" font-family="Helvetica,sans-Serif" font-size="10.00">BitBully::Board::nextMove</text>
</a>
</g>
</g>
<!-- Node2&#45;&gt;Node14 -->
<g id="edge15_Node000002_Node000014" class="edge">
<title>Node2&#45;&gt;Node14</title>
<g id="a_edge15_Node000002_Node000014"><a xlink:title=" ">
<path fill="none" stroke="#63b8ff" d="M194.67,-307.41C209.08,-288.18 236.6,-255.31 268,-237.5 331.29,-201.6 357.31,-219.4 427,-198.5 457.66,-189.3 491.9,-176.93 516.54,-167.65"/>
<polygon fill="#63b8ff" stroke="#63b8ff" points="518.03,-170.83 526.14,-164.01 515.55,-164.28 518.03,-170.83"/>
</a>
</g>
</g>
<!-- Node15 -->
<g id="Node000015" class="node">
<title>Node15</title>
<g id="a_Node000015"><a xlink:href="classBitBully_1_1Board.html#a651aab94f4519f46a473d895a93736fe" target="_top" xlink:title="Apply a move (already encoded as a single&#45;bit mask) on a copy of this board.">
<polygon fill="white" stroke="#666666" points="412,-276.5 283,-276.5 283,-246.5 412,-246.5 412,-276.5"/>
<text text-anchor="start" x="291" y="-264.5" font-family="Helvetica,sans-Serif" font-size="10.00">BitBully::Board::playBit</text>
<text text-anchor="middle" x="347.5" y="-253.5" font-family="Helvetica,sans-Serif" font-size="10.00">MaskOnCopy</text>
</a>
</g>
</g>
<!-- Node2&#45;&gt;Node15 -->
<g id="edge17_Node000002_Node000015" class="edge">
<title>Node2&#45;&gt;Node15</title>
<g id="a_edge17_Node000002_Node000015"><a xlink:title=" ">
<path fill="none" stroke="#63b8ff" d="M217.22,-307.39C232.54,-300.64 251.05,-292.81 268,-286.5 274.21,-284.19 280.75,-281.89 287.29,-279.68"/>
<polygon fill="#63b8ff" stroke="#63b8ff" points="288.45,-282.98 296.84,-276.52 286.24,-276.34 288.45,-282.98"/>
</a>
</g>
</g>
<!-- Node16 -->
<g id="Node000016" class="node">
<title>Node16</title>
<g id="a_Node000016"><a xlink:href="classBitBully_1_1MoveList.html#a55c8ef61ddcc488a4bac162d07223489" target="_top" xlink:title="Remove and return the highest&#45;priority move.">
<polygon fill="white" stroke="#666666" points="411.5,-190 283.5,-190 283.5,-171 411.5,-171 411.5,-190"/>
<text text-anchor="middle" x="347.5" y="-178" font-family="Helvetica,sans-Serif" font-size="10.00">BitBully::MoveList::pop</text>
</a>
</g>
</g>
<!-- Node2&#45;&gt;Node16 -->
<g id="edge19_Node000002_Node000016" class="edge">
<title>Node2&#45;&gt;Node16</title>
<g id="a_edge19_Node000002_Node000016"><a xlink:title=" ">
<path fill="none" stroke="#63b8ff" d="M190.7,-307.4C202.61,-282.28 229.85,-231.99 268,-204.5 274.04,-200.15 280.89,-196.57 287.96,-193.64"/>
<polygon fill="#63b8ff" stroke="#63b8ff" points="289.53,-196.79 297.68,-190.02 287.09,-190.22 289.53,-196.79"/>
</a>
</g>
</g>
<!-- Node17 -->
<g id="Node000017" class="node">
<title>Node17</title>
<g id="a_Node000017"><a xlink:href="classBitBully_1_1Board.html#aa06de3e9e8e077b5e0c6cf75c5a0bd81" target="_top" xlink:title="Software popcount fallback used when no intrinsic is available.">
<polygon fill="white" stroke="#666666" points="418,-152.5 277,-152.5 277,-122.5 418,-122.5 418,-152.5"/>
<text text-anchor="start" x="285" y="-140.5" font-family="Helvetica,sans-Serif" font-size="10.00">BitBully::Board::popCount</text>
<text text-anchor="middle" x="347.5" y="-129.5" font-family="Helvetica,sans-Serif" font-size="10.00">Board</text>
</a>
</g>
</g>
<!-- Node2&#45;&gt;Node17 -->
<g id="edge20_Node000002_Node000017" class="edge">
<title>Node2&#45;&gt;Node17</title>
<g id="a_edge20_Node000002_Node000017"><a xlink:title=" ">
<path fill="none" stroke="#63b8ff" d="M187.72,-307.11C196.24,-275.14 220.23,-201.19 268,-161.5 269.56,-160.2 271.19,-158.97 272.88,-157.81"/>
<polygon fill="#63b8ff" stroke="#63b8ff" points="274.93,-160.66 281.74,-152.54 271.35,-154.65 274.93,-160.66"/>
</a>
</g>
</g>
<!-- Node18 -->
<g id="Node000018" class="node">
<title>Node18</title>
<g id="a_Node000018"><a xlink:href="classBitBully_1_1BitBully.html#aeeb900218ac6cd155adc27ff4283c904" target="_top" xlink:title="Cheap evaluation: play out the game using safe heuristic moves.">
<polygon fill="white" stroke="#666666" points="396.5,-104.5 298.5,-104.5 298.5,-74.5 396.5,-74.5 396.5,-104.5"/>
<text text-anchor="start" x="306.5" y="-92.5" font-family="Helvetica,sans-Serif" font-size="10.00">BitBully::BitBully</text>
<text text-anchor="middle" x="347.5" y="-81.5" font-family="Helvetica,sans-Serif" font-size="10.00">::rollout</text>
</a>
</g>
</g>
<!-- Node2&#45;&gt;Node18 -->
<g id="edge21_Node000002_Node000018" class="edge">
<title>Node2&#45;&gt;Node18</title>
<g id="a_edge21_Node000002_Node000018"><a xlink:title=" ">
<path fill="none" stroke="#63b8ff" d="M185.64,-307.38C190.6,-269.12 208.94,-167.71 268,-113.5 273.91,-108.08 281.01,-103.88 288.49,-100.63"/>
<polygon fill="#63b8ff" stroke="#63b8ff" points="289.99,-103.8 298.12,-97 287.52,-97.26 289.99,-103.8"/>
</a>
</g>
</g>
<!-- Node19 -->
<g id="Node000019" class="node">
<title>Node19</title>
<g id="a_Node000019"><a xlink:href="classBitBully_1_1Board.html#a0d3c307cd8aa9aa2654254b6e801db6b" target="_top" xlink:title="Sort candidate moves into a MoveList using a threat&#45;based heuristic.">
<polygon fill="white" stroke="#666666" points="420.5,-56 274.5,-56 274.5,-37 420.5,-37 420.5,-56"/>
<text text-anchor="middle" x="347.5" y="-44" font-family="Helvetica,sans-Serif" font-size="10.00">BitBully::Board::sortMoves</text>
</a>
</g>
</g>
<!-- Node2&#45;&gt;Node19 -->
<g id="edge23_Node000002_Node000019" class="edge">
<title>Node2&#45;&gt;Node19</title>
<g id="a_edge23_Node000002_Node000019"><a xlink:title=" ">
<path fill="none" stroke="#63b8ff" d="M184.14,-307.39C185.41,-263.11 195.44,-132.58 268,-65.5 269.67,-63.95 271.45,-62.53 273.31,-61.21"/>
<polygon fill="#63b8ff" stroke="#63b8ff" points="275.11,-64.21 281.95,-56.12 271.55,-58.18 275.11,-64.21"/>
</a>
</g>
</g>
<!-- Node21 -->
<g id="Node000021" class="node">
<title>Node21</title>
<g id="a_Node000021"><a xlink:href="classBitBully_1_1Board.html#ad159897f318e91a46e1c229c08f7b52e" target="_top" xlink:title="Unique 64&#45;bit identifier of the position.">
<polygon fill="white" stroke="#666666" points="402.5,-19 292.5,-19 292.5,0 402.5,0 402.5,-19"/>
<text text-anchor="middle" x="347.5" y="-7" font-family="Helvetica,sans-Serif" font-size="10.00">BitBully::Board::uid</text>
</a>
</g>
</g>
<!-- Node2&#45;&gt;Node21 -->
<g id="edge26_Node000002_Node000021" class="edge">
<title>Node2&#45;&gt;Node21</title>
<g id="a_edge26_Node000002_Node000021"><a xlink:title=" ">
<path fill="none" stroke="#63b8ff" d="M183.36,-307.28C182.2,-258.67 185.55,-105.77 268,-27.5 272.35,-23.37 277.45,-20.12 282.93,-17.56"/>
<polygon fill="#63b8ff" stroke="#63b8ff" points="284.36,-20.76 292.43,-13.9 281.84,-14.23 284.36,-20.76"/>
</a>
</g>
</g>
<!-- Node7 -->
<g id="Node000007" class="node">
<title>Node7</title>
<g id="a_Node000007"><a xlink:href="classBitBully_1_1Board.html#ab27e5321cdbbf9ffec1abe4897ce6ad1" target="_top" xlink:title="Isolate the least significant set bit of a bitboard.">
<polygon fill="white" stroke="#666666" points="785,-331 676,-331 676,-312 785,-312 785,-331"/>
<text text-anchor="middle" x="730.5" y="-319" font-family="Helvetica,sans-Serif" font-size="10.00">BitBully::Board::lsb</text>
</a>
</g>
</g>
<!-- Node6&#45;&gt;Node7 -->
<g id="edge6_Node000006_Node000007" class="edge">
<title>Node6&#45;&gt;Node7</title>
<g id="a_edge6_Node000006_Node000007"><a xlink:title=" ">
<path fill="none" stroke="#63b8ff" d="M582.02,-490.96C600.19,-484.03 623.15,-473.27 640,-458.5 679,-424.3 707.9,-369.2 721.26,-340.4"/>
<polygon fill="#63b8ff" stroke="#63b8ff" points="724.55,-341.63 725.47,-331.07 718.17,-338.75 724.55,-341.63"/>
</a>
</g>
</g>
<!-- Node8&#45;&gt;Node9 -->
<g id="edge8_Node000008_Node000009" class="edge">
<title>Node8&#45;&gt;Node9</title>
<g id="a_edge8_Node000008_Node000009"><a xlink:title=" ">
<path fill="none" stroke="#63b8ff" d="M416.61,-460.05C436.5,-457 458.3,-453.65 478.43,-450.56"/>
<polygon fill="#63b8ff" stroke="#63b8ff" points="479.11,-454 488.47,-449.02 478.05,-447.08 479.11,-454"/>
</a>
</g>
</g>
<!-- Node12 -->
<g id="Node000012" class="node">
<title>Node12</title>
<g id="a_Node000012"><a xlink:href="classBitBully_1_1Board.html#a15103f528a6674a3c6a78defe7e91a7b" target="_top" xlink:title="Construct an empty board with player Yellow to move.">
<polygon fill="white" stroke="#666666" points="613,-311 490,-311 490,-292 613,-292 613,-311"/>
<text text-anchor="middle" x="551.5" y="-299" font-family="Helvetica,sans-Serif" font-size="10.00">BitBully::Board::Board</text>
</a>
</g>
</g>
<!-- Node11&#45;&gt;Node12 -->
<g id="edge12_Node000011_Node000012" class="edge">
<title>Node11&#45;&gt;Node12</title>
<g id="a_edge12_Node000011_Node000012"><a xlink:title=" ">
<path fill="none" stroke="#63b8ff" d="M396.63,-331.97C425.35,-326.28 462.03,-319.02 492.37,-313.01"/>
<polygon fill="#63b8ff" stroke="#63b8ff" points="493.26,-316.4 502.39,-311.03 491.9,-309.54 493.26,-316.4"/>
</a>
</g>
</g>
<!-- Node14&#45;&gt;Node7 -->
<g id="edge16_Node000014_Node000007" class="edge">
<title>Node14&#45;&gt;Node7</title>
<g id="a_edge16_Node000014_Node000007"><a xlink:title=" ">
<path fill="none" stroke="#63b8ff" d="M562.78,-164.2C591.87,-191.64 674.99,-270.07 711.7,-304.71"/>
<polygon fill="#63b8ff" stroke="#63b8ff" points="709.51,-307.46 719.19,-311.77 714.32,-302.36 709.51,-307.46"/>
</a>
</g>
</g>
<!-- Node15&#45;&gt;Node12 -->
<g id="edge18_Node000015_Node000012" class="edge">
<title>Node15&#45;&gt;Node12</title>
<g id="a_edge18_Node000015_Node000012"><a xlink:title=" ">
<path fill="none" stroke="#63b8ff" d="M412.14,-274.1C437.75,-279.17 467.1,-284.98 492.15,-289.95"/>
<polygon fill="#63b8ff" stroke="#63b8ff" points="491.75,-293.43 502.24,-291.94 493.11,-286.57 491.75,-293.43"/>
</a>
</g>
</g>
<!-- Node18&#45;&gt;Node14 -->
<g id="edge22_Node000018_Node000014" class="edge">
<title>Node18&#45;&gt;Node14</title>
<g id="a_edge22_Node000018_Node000014"><a xlink:title=" ">
<path fill="none" stroke="#63b8ff" d="M396.71,-104.04C406.74,-107.12 417.22,-110.38 427,-113.5 455.76,-122.67 488.13,-133.43 512.52,-141.63"/>
<polygon fill="#63b8ff" stroke="#63b8ff" points="511.52,-144.99 522.11,-144.86 513.75,-138.35 511.52,-144.99"/>
</a>
</g>
</g>
<!-- Node19&#45;&gt;Node14 -->
<g id="edge25_Node000019_Node000014" class="edge">
<title>Node19&#45;&gt;Node14</title>
<g id="a_edge25_Node000019_Node000014"><a xlink:title=" ">
<path fill="none" stroke="#63b8ff" d="M400.56,-56.09C409.58,-58.59 418.72,-61.69 427,-65.5 468.27,-84.48 509.8,-118.09 532.63,-138.14"/>
<polygon fill="#63b8ff" stroke="#63b8ff" points="530.37,-140.81 540.16,-144.85 535.03,-135.59 530.37,-140.81"/>
</a>
</g>
</g>
<!-- Node20 -->
<g id="Node000020" class="node">
<title>Node20</title>
<g id="a_Node000020"><a xlink:href="classBitBully_1_1MoveList.html#a6f8c35f7aad683ec4e1458aa235c7810" target="_top" xlink:title="Insert a (move, score) pair while keeping the queue sorted.">
<polygon fill="white" stroke="#666666" points="603.5,-61.5 499.5,-61.5 499.5,-31.5 603.5,-31.5 603.5,-61.5"/>
<text text-anchor="start" x="507.5" y="-49.5" font-family="Helvetica,sans-Serif" font-size="10.00">BitBully::MoveList</text>
<text text-anchor="middle" x="551.5" y="-38.5" font-family="Helvetica,sans-Serif" font-size="10.00">::insert</text>
</a>
</g>
</g>
<!-- Node19&#45;&gt;Node20 -->
<g id="edge24_Node000019_Node000020" class="edge">
<title>Node19&#45;&gt;Node20</title>
<g id="a_edge24_Node000019_Node000020"><a xlink:title=" ">
<path fill="none" stroke="#63b8ff" d="M420.57,-46.5C443.07,-46.5 467.66,-46.5 489.33,-46.5"/>
<polygon fill="#63b8ff" stroke="#63b8ff" points="489.39,-50 499.39,-46.5 489.39,-43 489.39,-50"/>
</a>
</g>
</g>
</g>
</svg>
