<?xml version="1.0" encoding="UTF-8" standalone="no"?>
<!DOCTYPE svg PUBLIC "-//W3C//DTD SVG 1.1//EN"
 "http://www.w3.org/Graphics/SVG/1.1/DTD/svg11.dtd">
<!-- Generated by graphviz version 2.43.0 (0)
 -->
<!-- Title: BitBullyArch Pages: 1 -->
<svg width="513pt" height="360pt"
 viewBox="0.00 0.00 512.50 360.00" xmlns="http://www.w3.org/2000/svg" xmlns:xlink="http://www.w3.org/1999/xlink">
<g id="graph0" class="graph" transform="scale(1 1) rotate(0) translate(4 356)">
<title>BitBullyArch</title>
<!-- py -->
<g id="node1" class="node">
<title>py</title>
<path fill="#fdf9ee" stroke="#a5781f" d="M439.5,-352C439.5,-352 243.5,-352 243.5,-352 237.5,-352 231.5,-346 231.5,-340 231.5,-340 231.5,-326 231.5,-326 231.5,-320 237.5,-314 243.5,-314 243.5,-314 439.5,-314 439.5,-314 445.5,-314 451.5,-320 451.5,-326 451.5,-326 451.5,-340 451.5,-340 451.5,-346 445.5,-352 439.5,-352"/>
<text text-anchor="middle" x="341.5" y="-336.8" font-family="Helvetica,sans-Serif" font-size="14.00">Python package</text>
<text text-anchor="middle" x="341.5" y="-321.8" font-family="Helvetica,sans-Serif" font-size="14.00">bitbully.solver / bitbully.board</text>
</g>
<!-- core -->
<g id="node2" class="node">
<title>core</title>
<path fill="#fbf1d9" stroke="#a5781f" d="M492.5,-277C492.5,-277 190.5,-277 190.5,-277 184.5,-277 178.5,-271 178.5,-265 178.5,-265 178.5,-251 178.5,-251 178.5,-245 184.5,-239 190.5,-239 190.5,-239 492.5,-239 492.5,-239 498.5,-239 504.5,-245 504.5,-251 504.5,-251 504.5,-265 504.5,-265 504.5,-271 498.5,-277 492.5,-277"/>
<text text-anchor="middle" x="341.5" y="-261.8" font-family="Helvetica,sans-Serif" font-size="14.00">bitbully_core (pybind11)</text>
<text text-anchor="middle" x="341.5" y="-246.8" font-family="Helvetica,sans-Serif" font-size="14.00">BoardCore / BitBullyCore / OpeningBookCore</text>
</g>
<!-- py&#45;&gt;core -->
<g id="edge1" class="edge">
<title>py&#45;&gt;core</title>
<path fill="none" stroke="#a5781f" d="M341.5,-313.96C341.5,-305.88 341.5,-296.18 341.5,-287.18"/>
<polygon fill="#a5781f" stroke="#a5781f" points="345,-287.09 341.5,-277.09 338,-287.09 345,-287.09"/>
</g>
<!-- bb -->
<g id="node3" class="node">
<title>bb</title>
<g id="a_node3"><a xlink:href="classBitBully_1_1BitBully.html" target="_top" xlink:title="BitBully::BitBully\nnegamax + MTD(f) driver">
<path fill="#fbf1d9" stroke="#a5781f" d="M426.5,-202C426.5,-202 256.5,-202 256.5,-202 250.5,-202 244.5,-196 244.5,-190 244.5,-190 244.5,-176 244.5,-176 244.5,-170 250.5,-164 256.5,-164 256.5,-164 426.5,-164 426.5,-164 432.5,-164 438.5,-170 438.5,-176 438.5,-176 438.5,-190 438.5,-190 438.5,-196 432.5,-202 426.5,-202"/>
<text text-anchor="middle" x="341.5" y="-186.8" font-family="Helvetica,sans-Serif" font-size="14.00">BitBully::BitBully</text>
<text text-anchor="middle" x="341.5" y="-171.8" font-family="Helvetica,sans-Serif" font-size="14.00">negamax + MTD(f) driver</text>
</a>
</g>
</g>
<!-- core&#45;&gt;bb -->
<g id="edge2" class="edge">
<title>core&#45;&gt;bb</title>
<path fill="none" stroke="#a5781f" d="M341.5,-238.96C341.5,-230.88 341.5,-221.18 341.5,-212.18"/>
<polygon fill="#a5781f" stroke="#a5781f" points="345,-212.09 341.5,-202.09 338,-212.09 345,-212.09"/>
</g>
<!-- board -->
<g id="node4" class="node">
<title>board</title>
<g id="a_node4"><a xlink:href="classBitBully_1_1Board.html" target="_top" xlink:title="BitBully::Board\nbitboards + move generation">
<path fill="#fbf1d9" stroke="#a5781f" d="M209,-127C209,-127 12,-127 12,-127 6,-127 0,-121 0,-115 0,-115 0,-101 0,-101 0,-95 6,-89 12,-89 12,-89 209,-89 209,-89 215,-89 221,-95 221,-101 221,-101 221,-115 221,-115 221,-121 215,-127 209,-127"/>
<text text-anchor="middle" x="110.5" y="-111.8" font-family="Helvetica,sans-Serif" font-size="14.00">BitBully::Board</text>
<text text-anchor="middle" x="110.5" y="-96.8" font-family="Helvetica,sans-Serif" font-size="14.00">bitboards + move generation</text>
</a>
</g>
</g>
<!-- bb&#45;&gt;board -->
<g id="edge3" class="edge">
<title>bb&#45;&gt;board</title>
<path fill="none" stroke="#a5781f" d="M284.4,-163.96C252.05,-153.73 211.41,-140.89 177.56,-130.19"/>
<polygon fill="#a5781f" stroke="#a5781f" points="178.33,-126.77 167.74,-127.09 176.23,-133.44 178.33,-126.77"/>
</g>
<!-- tt -->
<g id="node5" class="node">
<title>tt</title>
<g id="a_node5"><a xlink:href="classBitBully_1_1TranspositionTable.html" target="_top" xlink:title="TranspositionTable\ndirect&#45;mapped score cache">
<path fill="#fbf1d9" stroke="#a5781f" d="M431.5,-127C431.5,-127 251.5,-127 251.5,-127 245.5,-127 239.5,-121 239.5,-115 239.5,-115 239.5,-101 239.5,-101 239.5,-95 245.5,-89 251.5,-89 251.5,-89 431.5,-89 431.5,-89 437.5,-89 443.5,-95 443.5,-101 443.5,-101 443.5,-115 443.5,-115 443.5,-121 437.5,-127 431.5,-127"/>
<text text-anchor="middle" x="341.5" y="-111.8" font-family="Helvetica,sans-Serif" font-size="14.00">TranspositionTable</text>
<text text-anchor="middle" x="341.5" y="-96.8" font-family="Helvetica,sans-Serif" font-size="14.00">direct&#45;mapped score cache</text>
</a>
</g>
</g>
<!-- bb&#45;&gt;tt -->
<g id="edge4" class="edge">
<title>bb&#45;&gt;tt</title>
<path fill="none" stroke="#a5781f" d="M341.5,-163.96C341.5,-155.88 341.5,-146.18 341.5,-137.18"/>
<polygon fill="#a5781f" stroke="#a5781f" points="345,-137.09 341.5,-127.09 338,-137.09 345,-137.09"/>
</g>
<!-- book -->
<g id="node6" class="node">
<title>book</title>
<g id="a_node6"><a xlink:href="classBitBully_1_1OpeningBook.html" target="_top" xlink:title="OpeningBook\n8&#45;/12&#45;ply pre&#45;computed answers">
<path fill="#fbf1d9" stroke="#a5781f" d="M401.5,-38C401.5,-38 181.5,-38 181.5,-38 175.5,-38 169.5,-32 169.5,-26 169.5,-26 169.5,-12 169.5,-12 169.5,-6 175.5,0 181.5,0 181.5,0 401.5,0 401.5,0 407.5,0 413.5,-6 413.5,-12 413.5,-12 413.5,-26 413.5,-26 413.5,-32 407.5,-38 401.5,-38"/>
<text text-anchor="middle" x="291.5" y="-22.8" font-family="Helvetica,sans-Serif" font-size="14.00">OpeningBook</text>
<text text-anchor="middle" x="291.5" y="-7.8" font-family="Helvetica,sans-Serif" font-size="14.00">8&#45;/12&#45;ply pre&#45;computed answers</text>
</a>
</g>
</g>
<!-- bb&#45;&gt;book -->
<g id="edge5" class="edge">
<title>bb&#45;&gt;book</title>
<path fill="none" stroke="#a5781f" d="M406.95,-163.9C424.8,-155.64 442.07,-143.81 452.5,-127 461.4,-112.65 461.8,-103.1 452.5,-89 438.03,-67.05 414.97,-52.06 390.77,-41.82"/>
<polygon fill="#a5781f" stroke="#a5781f" points="392.04,-38.56 381.46,-38.13 389.46,-45.07 392.04,-38.56"/>
</g>
<!-- board&#45;&gt;book -->
<g id="edge6" class="edge">
<title>board&#45;&gt;book</title>
<path fill="none" stroke="#a5781f" stroke-dasharray="5,2" d="M148,-88.97C176.16,-75.44 214.87,-56.83 244.99,-42.35"/>
<polygon fill="#a5781f" stroke="#a5781f" points="246.55,-45.49 254.04,-38 243.52,-39.18 246.55,-45.49"/>
<text text-anchor="middle" x="258" y="-59.8" font-family="Times,serif" font-size="14.00">Huffman key</text>
</g>
</g>
</svg>
